<?xml version="1.0" encoding="UTF-8" standalone="no"?>
<!DOCTYPE svg PUBLIC "-//W3C//DTD SVG 1.1//EN"
 "http://www.w3.org/Graphics/SVG/1.1/DTD/svg11.dtd">
<!-- Generated by graphviz version 2.40.1 (20161225.0304)
 -->
<!-- Title: g Pages: 1 -->
<svg width="1809pt" height="536pt"
 viewBox="0.00 0.00 1809.00 536.00" xmlns="http://www.w3.org/2000/svg" xmlns:xlink="http://www.w3.org/1999/xlink">
<g id="graph0" class="graph" transform="scale(1 1) rotate(0) translate(4 532)">
<title>g</title>
<polygon fill="#ffffff" stroke="transparent" points="-4,4 -4,-532 1805,-532 1805,4 -4,4"/>
<!-- producer_producer -->
<g id="node1" class="node">
<title>producer_producer</title>
<polygon fill="none" stroke="#000000" points="272,-112 272,-136 732,-136 732,-112 272,-112"/>
<text text-anchor="start" x="435.5" y="-121.2" font-family="Times,serif" font-weight="bold" font-size="16.00" fill="#000000">producer_producer</text>
<polygon fill="none" stroke="#000000" points="272,-88 272,-112 732,-112 732,-88 272,-88"/>
<text text-anchor="start" x="275" y="-97.2" font-family="Times,serif" font-size="16.00" fill="#ff0000">dataport sb_queue_union_art_DataContent_1_t </text>
<text text-anchor="start" x="585" y="-97.2" font-family="Times,serif" font-weight="bold" font-size="16.00" fill="#ff0000">sb_to_filter_queue_1</text>
<polygon fill="none" stroke="#000000" points="272,-64 272,-88 732,-88 732,-64 272,-64"/>
<text text-anchor="start" x="346" y="-73.2" font-family="Times,serif" font-size="16.00" fill="#0000ff">emits ReceiveEvent </text>
<text text-anchor="start" x="476" y="-73.2" font-family="Times,serif" font-weight="bold" font-size="16.00" fill="#0000ff">sb_to_filter_1_notification</text>
<polygon fill="none" stroke="#000000" points="272,-40 272,-64 732,-64 732,-40 272,-40"/>
<text text-anchor="start" x="386.5" y="-49.2" font-family="Times,serif" font-size="16.00" fill="#0000ff">emits TickTock </text>
<text text-anchor="start" x="491.5" y="-49.2" font-family="Times,serif" font-weight="bold" font-size="16.00" fill="#0000ff">sb_self_pacer_tick</text>
<polygon fill="none" stroke="#000000" points="272,-16 272,-40 732,-40 732,-16 272,-16"/>
<text text-anchor="start" x="370.5" y="-25.2" font-family="Times,serif" font-size="16.00" fill="#0000ff">consumes TickTock </text>
<text text-anchor="start" x="503.5" y="-25.2" font-family="Times,serif" font-weight="bold" font-size="16.00" fill="#0000ff">sb_self_pacer_tock</text>
</g>
<!-- producer_producer&#45;&gt;producer_producer -->
<g id="conn5" class="edge">
<title>producer_producer:sb_self_pacer_tick&#45;&gt;producer_producer:sb_self_pacer_tock</title>
<path fill="none" stroke="#0000ff" d="M271.9084,-57.6891C132.1629,-58.1005 0,-53.1968 0,-40 0,-27.1254 125.7884,-22.1439 261.6885,-22.2903"/>
<polygon fill="#0000ff" stroke="#0000ff" points="261.9014,-25.7907 271.9084,-22.3109 261.9155,-18.7907 261.9014,-25.7907"/>
</g>
<!-- filter_filter -->
<g id="node2" class="node">
<title>filter_filter</title>
<polygon fill="none" stroke="#000000" points="784.5,-148 784.5,-172 1277.5,-172 1277.5,-148 784.5,-148"/>
<text text-anchor="start" x="993.5" y="-157.2" font-family="Times,serif" font-weight="bold" font-size="16.00" fill="#000000">filter_filter</text>
<polygon fill="none" stroke="#000000" points="784.5,-124 784.5,-148 1277.5,-148 1277.5,-124 784.5,-124"/>
<text text-anchor="start" x="787.5" y="-133.2" font-family="Times,serif" font-size="16.00" fill="#ff0000">dataport sb_queue_union_art_DataContent_1_t </text>
<text text-anchor="start" x="1097.5" y="-133.2" font-family="Times,serif" font-weight="bold" font-size="16.00" fill="#ff0000">sb_from_producer_queue</text>
<polygon fill="none" stroke="#000000" points="784.5,-100 784.5,-124 1277.5,-124 1277.5,-100 784.5,-100"/>
<text text-anchor="start" x="787.5" y="-109.2" font-family="Times,serif" font-size="16.00" fill="#ff0000">dataport sb_queue_union_art_DataContent_1_t </text>
<text text-anchor="start" x="1097.5" y="-109.2" font-family="Times,serif" font-weight="bold" font-size="16.00" fill="#ff0000">sb_to_consumer_queue_1</text>
<polygon fill="none" stroke="#000000" points="784.5,-76 784.5,-100 1277.5,-100 1277.5,-76 784.5,-76"/>
<text text-anchor="start" x="858.5" y="-85.2" font-family="Times,serif" font-size="16.00" fill="#0000ff">emits ReceiveEvent </text>
<text text-anchor="start" x="988.5" y="-85.2" font-family="Times,serif" font-weight="bold" font-size="16.00" fill="#0000ff">sb_to_consumer_1_notification</text>
<polygon fill="none" stroke="#000000" points="784.5,-52 784.5,-76 1277.5,-76 1277.5,-52 784.5,-52"/>
<text text-anchor="start" x="915.5" y="-61.2" font-family="Times,serif" font-size="16.00" fill="#0000ff">emits TickTock </text>
<text text-anchor="start" x="1020.5" y="-61.2" font-family="Times,serif" font-weight="bold" font-size="16.00" fill="#0000ff">sb_self_pacer_tick</text>
<polygon fill="none" stroke="#000000" points="784.5,-28 784.5,-52 1277.5,-52 1277.5,-28 784.5,-28"/>
<text text-anchor="start" x="844" y="-37.2" font-family="Times,serif" font-size="16.00" fill="#0000ff">consumes ReceiveEvent </text>
<text text-anchor="start" x="1003" y="-37.2" font-family="Times,serif" font-weight="bold" font-size="16.00" fill="#0000ff">sb_from_producer_notification</text>
<polygon fill="none" stroke="#000000" points="784.5,-4 784.5,-28 1277.5,-28 1277.5,-4 784.5,-4"/>
<text text-anchor="start" x="899.5" y="-13.2" font-family="Times,serif" font-size="16.00" fill="#0000ff">consumes TickTock </text>
<text text-anchor="start" x="1032.5" y="-13.2" font-family="Times,serif" font-weight="bold" font-size="16.00" fill="#0000ff">sb_self_pacer_tock</text>
</g>
<!-- producer_producer&#45;&gt;filter_filter -->
<g id="conn1" class="edge">
<title>producer_producer:sb_to_filter_1_notification&#45;&gt;filter_filter:sb_from_producer_notification</title>
<path fill="none" stroke="#0000ff" d="M732,-76C756.3135,-76 756.7163,-49.4131 774.305,-41.9355"/>
<polygon fill="#0000ff" stroke="#0000ff" points="775.3283,-45.3038 784.5,-40 774.0226,-38.4267 775.3283,-45.3038"/>
</g>
<!-- producer_producer&#45;&gt;filter_filter -->
<g id="conn2" class="edge">
<title>producer_producer:sb_to_filter_queue_1&#45;&gt;filter_filter:sb_from_producer_queue</title>
<path fill="none" stroke="#ff0000" d="M732,-100C756.3135,-100 756.7163,-126.5869 774.305,-134.0645"/>
<polygon fill="#ff0000" stroke="#ff0000" points="774.0226,-137.5733 784.5,-136 775.3283,-130.6962 774.0226,-137.5733"/>
</g>
<!-- filter_filter&#45;&gt;filter_filter -->
<g id="conn6" class="edge">
<title>filter_filter:sb_self_pacer_tick&#45;&gt;filter_filter:sb_self_pacer_tock</title>
<path fill="none" stroke="#0000ff" d="M784.4427,-69.0244C643.218,-68.1145 512,-60.3027 512,-40 512,-20.1929 636.889,-12.2744 774.1188,-11.0547"/>
<polygon fill="#0000ff" stroke="#0000ff" points="774.4699,-14.5522 784.4427,-10.9756 774.4162,-7.5524 774.4699,-14.5522"/>
</g>
<!-- consumer_consumer -->
<g id="node3" class="node">
<title>consumer_consumer</title>
<polygon fill="none" stroke="#000000" points="1329,-136 1329,-160 1793,-160 1793,-136 1329,-136"/>
<text text-anchor="start" x="1490.5" y="-145.2" font-family="Times,serif" font-weight="bold" font-size="16.00" fill="#000000">consumer_consumer</text>
<polygon fill="none" stroke="#000000" points="1329,-112 1329,-136 1793,-136 1793,-112 1329,-112"/>
<text text-anchor="start" x="1332" y="-121.2" font-family="Times,serif" font-size="16.00" fill="#ff0000">dataport sb_queue_union_art_DataContent_1_t </text>
<text text-anchor="start" x="1642" y="-121.2" font-family="Times,serif" font-weight="bold" font-size="16.00" fill="#ff0000">sb_from_filter_queue</text>
<polygon fill="none" stroke="#000000" points="1329,-88 1329,-112 1793,-112 1793,-88 1329,-88"/>
<text text-anchor="start" x="1445.5" y="-97.2" font-family="Times,serif" font-size="16.00" fill="#0000ff">emits TickTock </text>
<text text-anchor="start" x="1550.5" y="-97.2" font-family="Times,serif" font-weight="bold" font-size="16.00" fill="#0000ff">sb_self_pacer_tick</text>
<polygon fill="none" stroke="#000000" points="1329,-64 1329,-88 1793,-88 1793,-64 1329,-64"/>
<text text-anchor="start" x="1388.5" y="-73.2" font-family="Times,serif" font-size="16.00" fill="#0000ff">consumes ReceiveEvent </text>
<text text-anchor="start" x="1547.5" y="-73.2" font-family="Times,serif" font-weight="bold" font-size="16.00" fill="#0000ff">sb_from_filter_notification</text>
<polygon fill="none" stroke="#000000" points="1329,-40 1329,-64 1793,-64 1793,-40 1329,-40"/>
<text text-anchor="start" x="1429.5" y="-49.2" font-family="Times,serif" font-size="16.00" fill="#0000ff">consumes TickTock </text>
<text text-anchor="start" x="1562.5" y="-49.2" font-family="Times,serif" font-weight="bold" font-size="16.00" fill="#0000ff">sb_self_pacer_tock</text>
</g>
<!-- filter_filter&#45;&gt;consumer_consumer -->
<g id="conn3" class="edge">
<title>filter_filter:sb_to_consumer_1_notification&#45;&gt;consumer_consumer:sb_from_filter_notification</title>
<path fill="none" stroke="#0000ff" d="M1277.5,-88C1297.1462,-88 1303.5112,-79.6145 1318.7995,-76.863"/>
<polygon fill="#0000ff" stroke="#0000ff" points="1319.3307,-80.3307 1329,-76 1318.7405,-73.3556 1319.3307,-80.3307"/>
</g>
<!-- filter_filter&#45;&gt;consumer_consumer -->
<g id="conn4" class="edge">
<title>filter_filter:sb_to_consumer_queue_1&#45;&gt;consumer_consumer:sb_from_filter_queue</title>
<path fill="none" stroke="#ff0000" d="M1277.5,-112C1297.1462,-112 1303.5112,-120.3855 1318.7995,-123.137"/>
<polygon fill="#ff0000" stroke="#ff0000" points="1318.7405,-126.6444 1329,-124 1319.3307,-119.6693 1318.7405,-126.6444"/>
</g>
<!-- consumer_consumer&#45;&gt;consumer_consumer -->
<g id="conn7" class="edge">
<title>consumer_consumer:sb_self_pacer_tick&#45;&gt;consumer_consumer:sb_self_pacer_tock</title>
<path fill="none" stroke="#0000ff" d="M1328.8781,-105.0704C1188.5398,-104.4196 1056,-96.7056 1056,-76 1056,-55.7999 1182.1472,-47.9648 1318.6151,-46.99"/>
<polygon fill="#0000ff" stroke="#0000ff" points="1318.8989,-50.4885 1328.8781,-46.9296 1318.8576,-43.4886 1318.8989,-50.4885"/>
</g>
<!-- connectiontypekey -->
<g id="node4" class="node">
<title>connectiontypekey</title>
<polygon fill="none" stroke="#000000" points="384,-330 384,-354 620,-354 620,-330 384,-330"/>
<text text-anchor="start" x="422" y="-339.2" font-family="Times,serif" font-weight="bold" font-size="16.00" fill="#000000">Key: Connection Types</text>
<polygon fill="none" stroke="#000000" points="384,-306 384,-330 570,-330 570,-306 384,-306"/>
<text text-anchor="start" x="424.5" y="-314.2" font-family="Times,serif" font-size="16.00" fill="#ff0000">seL4SharedData</text>
<polygon fill="#ff0000" stroke="transparent" points="570,-306 570,-330 620,-330 620,-306 570,-306"/>
<polygon fill="none" stroke="#000000" points="570,-306 570,-330 620,-330 620,-306 570,-306"/>
<text text-anchor="start" x="584.5" y="-314.2" font-family="Times,serif" font-size="16.00" fill="#000000">red</text>
<polygon fill="none" stroke="#000000" points="384,-282 384,-306 570,-306 570,-282 384,-282"/>
<text text-anchor="start" x="422.5" y="-290.2" font-family="Times,serif" font-size="16.00" fill="#0000ff">seL4Notification</text>
<polygon fill="#0000ff" stroke="transparent" points="570,-282 570,-306 620,-306 620,-282 570,-282"/>
<polygon fill="none" stroke="#000000" points="570,-282 570,-306 620,-306 620,-282 570,-282"/>
<text text-anchor="start" x="581" y="-290.2" font-family="Times,serif" font-size="16.00" fill="#000000">blue</text>
<polygon fill="none" stroke="#000000" points="384,-258 384,-282 570,-282 570,-258 384,-258"/>
<text text-anchor="start" x="433" y="-266.2" font-family="Times,serif" font-size="16.00" fill="#ffa500">seL4RPCCall</text>
<polygon fill="#ffa500" stroke="transparent" points="570,-258 570,-282 620,-282 620,-258 570,-258"/>
<polygon fill="none" stroke="#000000" points="570,-258 570,-282 620,-282 620,-258 570,-258"/>
<text text-anchor="start" x="573" y="-266.2" font-family="Times,serif" font-size="16.00" fill="#000000">orange</text>
<polygon fill="none" stroke="#000000" points="384,-234 384,-258 570,-258 570,-234 384,-234"/>
<text text-anchor="start" x="424" y="-242.2" font-family="Times,serif" font-size="16.00" fill="#00ff00">seL4TimeServer</text>
<polygon fill="#00ff00" stroke="transparent" points="570,-234 570,-258 620,-258 620,-234 570,-234"/>
<polygon fill="none" stroke="#000000" points="570,-234 570,-258 620,-258 620,-234 570,-234"/>
<text text-anchor="start" x="577" y="-242.2" font-family="Times,serif" font-size="16.00" fill="#000000">green</text>
<polygon fill="none" stroke="#000000" points="384,-210 384,-234 570,-234 570,-210 384,-210"/>
<text text-anchor="start" x="387" y="-218.2" font-family="Times,serif" font-size="16.00" fill="#a52a2a">seL4GlobalAsynchCallback</text>
<polygon fill="#a52a2a" stroke="transparent" points="570,-210 570,-234 620,-234 620,-210 570,-210"/>
<polygon fill="none" stroke="#000000" points="570,-210 570,-234 620,-234 620,-210 570,-210"/>
<text text-anchor="start" x="574" y="-218.2" font-family="Times,serif" font-size="16.00" fill="#000000">brown</text>
<polygon fill="none" stroke="#000000" points="384,-186 384,-210 570,-210 570,-186 384,-186"/>
<text text-anchor="start" x="393.5" y="-194.2" font-family="Times,serif" font-size="16.00" fill="#ffff00">seL4VMDTBPassthrough</text>
<polygon fill="#ffff00" stroke="transparent" points="570,-186 570,-210 620,-210 620,-186 570,-186"/>
<polygon fill="none" stroke="#000000" points="570,-186 570,-210 620,-210 620,-186 570,-186"/>
<text text-anchor="start" x="573" y="-194.2" font-family="Times,serif" font-size="16.00" fill="#000000">yellow</text>
<polygon fill="none" stroke="#000000" points="384,-162 384,-186 570,-186 570,-162 384,-162"/>
<text text-anchor="start" x="392.5" y="-170.2" font-family="Times,serif" font-size="16.00" fill="#ffc0cb">seL4SharedDataWithCaps</text>
<polygon fill="#ffc0cb" stroke="transparent" points="570,-162 570,-186 620,-186 620,-162 570,-162"/>
<polygon fill="none" stroke="#000000" points="570,-162 570,-186 620,-186 620,-162 570,-162"/>
<text text-anchor="start" x="580" y="-170.2" font-family="Times,serif" font-size="16.00" fill="#000000">pink</text>
</g>
<!-- interfacetypekey -->
<g id="node5" class="node">
<title>interfacetypekey</title>
<polygon fill="none" stroke="#000000" points="428,-500 428,-524 576,-524 576,-500 428,-500"/>
<text text-anchor="start" x="431" y="-509.2" font-family="Times,serif" font-weight="bold" font-size="16.00" fill="#000000">Key: Interface Types</text>
<polygon fill="none" stroke="#000000" points="428,-476 428,-500 512,-500 512,-476 428,-476"/>
<text text-anchor="start" x="443.5" y="-484.2" font-family="Times,serif" font-size="16.00" fill="#ff0000">dataport</text>
<polygon fill="#ff0000" stroke="transparent" points="512,-476 512,-500 576,-500 576,-476 512,-476"/>
<polygon fill="none" stroke="#000000" points="512,-476 512,-500 576,-500 576,-476 512,-476"/>
<text text-anchor="start" x="533.5" y="-484.2" font-family="Times,serif" font-size="16.00" fill="#000000">red</text>
<polygon fill="none" stroke="#000000" points="428,-452 428,-476 512,-476 512,-452 428,-452"/>
<text text-anchor="start" x="452.5" y="-460.2" font-family="Times,serif" font-size="16.00" fill="#0000ff">emits</text>
<polygon fill="#0000ff" stroke="transparent" points="512,-452 512,-476 576,-476 576,-452 512,-452"/>
<polygon fill="none" stroke="#000000" points="512,-452 512,-476 576,-476 576,-452 512,-452"/>
<text text-anchor="start" x="530" y="-460.2" font-family="Times,serif" font-size="16.00" fill="#000000">blue</text>
<polygon fill="none" stroke="#000000" points="428,-428 428,-452 512,-452 512,-428 428,-428"/>
<text text-anchor="start" x="438" y="-436.2" font-family="Times,serif" font-size="16.00" fill="#0000ff">consumes</text>
<polygon fill="#0000ff" stroke="transparent" points="512,-428 512,-452 576,-452 576,-428 512,-428"/>
<polygon fill="none" stroke="#000000" points="512,-428 512,-452 576,-452 576,-428 512,-428"/>
<text text-anchor="start" x="530" y="-436.2" font-family="Times,serif" font-size="16.00" fill="#000000">blue</text>
<polygon fill="none" stroke="#000000" points="428,-404 428,-428 512,-428 512,-404 428,-404"/>
<text text-anchor="start" x="442" y="-412.2" font-family="Times,serif" font-size="16.00" fill="#ffa500">provides</text>
<polygon fill="#ffa500" stroke="transparent" points="512,-404 512,-428 576,-428 576,-404 512,-404"/>
<polygon fill="none" stroke="#000000" points="512,-404 512,-428 576,-428 576,-404 512,-404"/>
<text text-anchor="start" x="522" y="-412.2" font-family="Times,serif" font-size="16.00" fill="#000000">orange</text>
<polygon fill="none" stroke="#000000" points="428,-380 428,-404 512,-404 512,-380 428,-380"/>
<text text-anchor="start" x="456" y="-388.2" font-family="Times,serif" font-size="16.00" fill="#ffa500">uses</text>
<polygon fill="#ffa500" stroke="transparent" points="512,-380 512,-404 576,-404 576,-380 512,-380"/>
<polygon fill="none" stroke="#000000" points="512,-380 512,-404 576,-404 576,-380 512,-380"/>
<text text-anchor="start" x="522" y="-388.2" font-family="Times,serif" font-size="16.00" fill="#000000">orange</text>
</g>
</g>
</svg>
