<?xml version="1.0" encoding="UTF-8" standalone="no"?>
<!DOCTYPE svg PUBLIC "-//W3C//DTD SVG 1.1//EN"
 "http://www.w3.org/Graphics/SVG/1.1/DTD/svg11.dtd">
<!-- Generated by graphviz version 2.40.1 (20161225.0304)
 -->
<!-- Title: %3 Pages: 1 -->
<svg width="579pt" height="409pt"
 viewBox="0.00 0.00 579.00 409.00" xmlns="http://www.w3.org/2000/svg" xmlns:xlink="http://www.w3.org/1999/xlink">
<g id="graph0" class="graph" transform="scale(1 1) rotate(0) translate(4 405)">
<title>%3</title>
<polygon fill="#ffffff" stroke="transparent" points="-4,4 -4,-405 575,-405 575,4 -4,4"/>
<!-- producer_producer -->
<g id="node1" class="node">
<title>producer_producer</title>
<path fill="none" stroke="#000000" d="M559,-401C559,-401 288,-401 288,-401 282,-401 276,-395 276,-389 276,-389 276,-377 276,-377 276,-371 282,-365 288,-365 288,-365 559,-365 559,-365 565,-365 571,-371 571,-377 571,-377 571,-389 571,-389 571,-395 565,-401 559,-401"/>
<text text-anchor="middle" x="423.5" y="-379.3" font-family="Times,serif" font-size="14.00" fill="#000000">producer_producer::producer_t_producer_producer</text>
</g>
<!-- filter_filter -->
<g id="node2" class="node">
<title>filter_filter</title>
<path fill="none" stroke="#000000" d="M382.5,-255C382.5,-255 220.5,-255 220.5,-255 214.5,-255 208.5,-249 208.5,-243 208.5,-243 208.5,-231 208.5,-231 208.5,-225 214.5,-219 220.5,-219 220.5,-219 382.5,-219 382.5,-219 388.5,-219 394.5,-225 394.5,-231 394.5,-231 394.5,-243 394.5,-243 394.5,-249 388.5,-255 382.5,-255"/>
<text text-anchor="middle" x="301.5" y="-233.3" font-family="Times,serif" font-size="14.00" fill="#000000">filter_filter::filter_t_filter_filter</text>
</g>
<!-- producer_producer&#45;&gt;filter_filter -->
<g id="edge3" class="edge">
<title>producer_producer&#45;&gt;filter_filter</title>
<path fill="none" stroke="#000000" d="M336.7237,-360.5878C321.5932,-352.7459 307.7603,-342.1916 298.5,-328 286.4184,-309.4847 288.4336,-284.0382 292.7485,-264.7608"/>
<polygon fill="none" stroke="#000000" points="347.4801,-361.2885 344.0347,-368.5087 336.8146,-365.0633 340.26,-357.8432 347.4801,-361.2885"/>
<polyline fill="none" stroke="#000000" points="338.5373,-361.4533 336.7323,-360.5919 "/>
<polygon fill="none" stroke="#000000" points="291.3536,-254.0516 299.1051,-256.0301 297.1266,-263.7816 289.3751,-261.8031 291.3536,-254.0516"/>
<polyline fill="none" stroke="#000000" points="293.2509,-262.7924 292.7562,-264.7302 "/>
<text text-anchor="middle" x="315.5" y="-306.3" font-family="Times,serif" font-size="14.00" fill="#000000">conn2</text>
</g>
<!-- conn1 -->
<g id="node4" class="node">
<title>conn1</title>
<polygon fill="none" stroke="#000000" points="387.5,-328 341.5842,-310 387.5,-292 433.4158,-310 387.5,-328"/>
<text text-anchor="middle" x="387.5" y="-306.3" font-family="Times,serif" font-size="14.00" fill="#000000">conn1</text>
</g>
<!-- producer_producer&#45;&gt;conn1 -->
<g id="edge1" class="edge">
<title>producer_producer&#45;&gt;conn1</title>
<path fill="none" stroke="#000000" d="M414.6011,-364.9551C410.0568,-355.7402 404.4623,-344.3957 399.5386,-334.4116"/>
<polygon fill="#000000" stroke="#000000" points="402.6417,-332.7906 395.0797,-325.3699 396.3636,-335.8867 402.6417,-332.7906"/>
</g>
<!-- conn5 -->
<g id="node6" class="node">
<title>conn5</title>
<polygon fill="none" stroke="#000000" points="497.5,-328 451.5842,-310 497.5,-292 543.4158,-310 497.5,-328"/>
<text text-anchor="middle" x="497.5" y="-306.3" font-family="Times,serif" font-size="14.00" fill="#000000">conn5</text>
</g>
<!-- producer_producer&#45;&gt;conn5 -->
<g id="edge7" class="edge">
<title>producer_producer&#45;&gt;conn5</title>
<path fill="none" stroke="#000000" d="M435.8764,-364.9551C446.0785,-353.8026 460.5366,-339.5309 472.9792,-328.3265"/>
<polygon fill="#000000" stroke="#000000" points="475.5876,-330.6944 480.7997,-321.4702 470.9729,-325.4308 475.5876,-330.6944"/>
</g>
<!-- consumer_consumer -->
<g id="node3" class="node">
<title>consumer_consumer</title>
<path fill="none" stroke="#000000" d="M309,-109C309,-109 12,-109 12,-109 6,-109 0,-103 0,-97 0,-97 0,-85 0,-85 0,-79 6,-73 12,-73 12,-73 309,-73 309,-73 315,-73 321,-79 321,-85 321,-85 321,-97 321,-97 321,-103 315,-109 309,-109"/>
<text text-anchor="middle" x="160.5" y="-87.3" font-family="Times,serif" font-size="14.00" fill="#000000">consumer_consumer::consumer_t_consumer_consumer</text>
</g>
<!-- filter_filter&#45;&gt;consumer_consumer -->
<g id="edge6" class="edge">
<title>filter_filter&#45;&gt;consumer_consumer</title>
<path fill="none" stroke="#000000" d="M223.6944,-215.942C194.3376,-206.2931 165.9562,-194.2818 157.5,-182 144.9624,-163.7903 147.0199,-138.3156 151.467,-118.9496"/>
<polygon fill="none" stroke="#000000" points="234.453,-215.1786 232.0192,-222.7995 224.3984,-220.3657 226.8321,-212.7449 234.453,-215.1786"/>
<polyline fill="none" stroke="#000000" points="225.6153,-216.5553 223.71,-215.9469 "/>
<polygon fill="none" stroke="#000000" points="150.1558,-108.1644 157.895,-110.1907 155.8687,-117.9298 148.1296,-115.9036 150.1558,-108.1644"/>
<polyline fill="none" stroke="#000000" points="151.9991,-116.9167 151.4926,-118.8515 "/>
<text text-anchor="middle" x="174.5" y="-160.3" font-family="Times,serif" font-size="14.00" fill="#000000">conn4</text>
</g>
<!-- conn3 -->
<g id="node5" class="node">
<title>conn3</title>
<polygon fill="none" stroke="#000000" points="246.5,-182 200.5842,-164 246.5,-146 292.4158,-164 246.5,-182"/>
<text text-anchor="middle" x="246.5" y="-160.3" font-family="Times,serif" font-size="14.00" fill="#000000">conn3</text>
</g>
<!-- filter_filter&#45;&gt;conn3 -->
<g id="edge4" class="edge">
<title>filter_filter&#45;&gt;conn3</title>
<path fill="none" stroke="#000000" d="M287.9045,-218.9551C280.4489,-209.0594 271.1429,-196.7078 263.2428,-186.2223"/>
<polygon fill="#000000" stroke="#000000" points="265.822,-183.8291 257.009,-177.9483 260.2311,-188.0413 265.822,-183.8291"/>
</g>
<!-- conn6 -->
<g id="node7" class="node">
<title>conn6</title>
<polygon fill="none" stroke="#000000" points="356.5,-182 310.5842,-164 356.5,-146 402.4158,-164 356.5,-182"/>
<text text-anchor="middle" x="356.5" y="-160.3" font-family="Times,serif" font-size="14.00" fill="#000000">conn6</text>
</g>
<!-- filter_filter&#45;&gt;conn6 -->
<g id="edge9" class="edge">
<title>filter_filter&#45;&gt;conn6</title>
<path fill="none" stroke="#000000" d="M309.1798,-218.9551C316.0504,-208.4577 325.9724,-195.1968 335.0587,-184.3314"/>
<polygon fill="#000000" stroke="#000000" points="337.8761,-186.4246 341.7797,-176.5751 332.5859,-181.8405 337.8761,-186.4246"/>
</g>
<!-- conn7 -->
<g id="node8" class="node">
<title>conn7</title>
<polygon fill="none" stroke="#000000" points="160.5,-36 114.5842,-18 160.5,0 206.4158,-18 160.5,-36"/>
<text text-anchor="middle" x="160.5" y="-14.3" font-family="Times,serif" font-size="14.00" fill="#000000">conn7</text>
</g>
<!-- consumer_consumer&#45;&gt;conn7 -->
<g id="edge11" class="edge">
<title>consumer_consumer&#45;&gt;conn7</title>
<path fill="none" stroke="#000000" d="M154.5843,-72.9551C153.7225,-64.2429 153.5284,-53.6272 154.0018,-44.0572"/>
<polygon fill="#000000" stroke="#000000" points="157.5094,-44.1018 154.8199,-33.854 150.5318,-43.5422 157.5094,-44.1018"/>
</g>
<!-- conn1&#45;&gt;filter_filter -->
<g id="edge2" class="edge">
<title>conn1&#45;&gt;filter_filter</title>
<path fill="none" stroke="#000000" d="M372.9113,-297.6165C361.347,-287.8004 344.8205,-273.7721 330.5781,-261.6826"/>
<polygon fill="#000000" stroke="#000000" points="332.8355,-259.0078 322.9467,-255.2048 328.3055,-264.3445 332.8355,-259.0078"/>
</g>
<!-- conn3&#45;&gt;consumer_consumer -->
<g id="edge5" class="edge">
<title>conn3&#45;&gt;consumer_consumer</title>
<path fill="none" stroke="#000000" d="M231.9113,-151.6165C220.347,-141.8004 203.8205,-127.7721 189.5781,-115.6826"/>
<polygon fill="#000000" stroke="#000000" points="191.8355,-113.0078 181.9467,-109.2048 187.3055,-118.3445 191.8355,-113.0078"/>
</g>
<!-- conn5&#45;&gt;producer_producer -->
<g id="edge8" class="edge">
<title>conn5&#45;&gt;producer_producer</title>
<path fill="none" stroke="#000000" d="M487.9686,-324.8909C479.52,-334.4022 467.0708,-346.9726 455.2978,-357.9884"/>
<polygon fill="#000000" stroke="#000000" points="452.7082,-355.6144 447.7079,-364.9551 457.4417,-360.7714 452.7082,-355.6144"/>
</g>
<!-- conn6&#45;&gt;filter_filter -->
<g id="edge10" class="edge">
<title>conn6&#45;&gt;filter_filter</title>
<path fill="none" stroke="#000000" d="M350.2353,-179.854C344.4505,-188.9386 335.9627,-200.5659 327.6182,-210.9579"/>
<polygon fill="#000000" stroke="#000000" points="324.6822,-209.0165 321.0112,-218.9551 330.0787,-213.4749 324.6822,-209.0165"/>
</g>
<!-- conn7&#45;&gt;consumer_consumer -->
<g id="edge12" class="edge">
<title>conn7&#45;&gt;consumer_consumer</title>
<path fill="none" stroke="#000000" d="M166.1801,-33.854C167.1664,-42.309 167.4708,-52.9664 167.0932,-62.7806"/>
<polygon fill="#000000" stroke="#000000" points="163.5879,-62.7446 166.4157,-72.9551 170.5724,-63.2097 163.5879,-62.7446"/>
</g>
</g>
</svg>
