<?xml version="1.0" encoding="UTF-8" standalone="no"?>
<!DOCTYPE svg PUBLIC "-//W3C//DTD SVG 1.1//EN"
 "http://www.w3.org/Graphics/SVG/1.1/DTD/svg11.dtd">
<!-- Generated by graphviz version 2.40.1 (20161225.0304)
 -->
<!-- Title: g Pages: 1 -->
<svg width="2110pt" height="740pt"
 viewBox="0.00 0.00 2110.00 740.00" xmlns="http://www.w3.org/2000/svg" xmlns:xlink="http://www.w3.org/1999/xlink">
<g id="graph0" class="graph" transform="scale(1 1) rotate(0) translate(4 736)">
<title>g</title>
<polygon fill="#ffffff" stroke="transparent" points="-4,4 -4,-736 2106,-736 2106,4 -4,4"/>
<!-- uxas_UxAS_thread -->
<g id="node1" class="node">
<title>uxas_UxAS_thread</title>
<polygon fill="none" stroke="#000000" points="1569.5,-292 1569.5,-316 2094.5,-316 2094.5,-292 1569.5,-292"/>
<text text-anchor="start" x="1765.5" y="-301.2" font-family="Times,serif" font-weight="bold" font-size="16.00" fill="#000000">uxas_UxAS_thread</text>
<polygon fill="none" stroke="#000000" points="1569.5,-268 1569.5,-292 2094.5,-292 2094.5,-268 1569.5,-268"/>
<text text-anchor="start" x="1572.5" y="-277.2" font-family="Times,serif" font-size="16.00" fill="#ff0000">dataport sb_queue_union_art_DataContent_1_t </text>
<text text-anchor="start" x="1882.5" y="-277.2" font-family="Times,serif" font-weight="bold" font-size="16.00" fill="#ff0000">sb_AutomationRequest_queue</text>
<polygon fill="none" stroke="#000000" points="1569.5,-244 1569.5,-268 2094.5,-268 2094.5,-244 1569.5,-244"/>
<text text-anchor="start" x="1581.5" y="-253.2" font-family="Times,serif" font-size="16.00" fill="#ff0000">dataport sb_queue_union_art_DataContent_1_t </text>
<text text-anchor="start" x="1891.5" y="-253.2" font-family="Times,serif" font-weight="bold" font-size="16.00" fill="#ff0000">sb_OperatingRegion_queue</text>
<polygon fill="none" stroke="#000000" points="1569.5,-220 1569.5,-244 2094.5,-244 2094.5,-220 1569.5,-220"/>
<text text-anchor="start" x="1585" y="-229.2" font-family="Times,serif" font-size="16.00" fill="#ff0000">dataport sb_queue_union_art_DataContent_1_t </text>
<text text-anchor="start" x="1895" y="-229.2" font-family="Times,serif" font-weight="bold" font-size="16.00" fill="#ff0000">sb_LineSearchTask_queue</text>
<polygon fill="none" stroke="#000000" points="1569.5,-196 1569.5,-220 2094.5,-220 2094.5,-196 1569.5,-196"/>
<text text-anchor="start" x="1716.5" y="-205.2" font-family="Times,serif" font-size="16.00" fill="#0000ff">emits TickTock </text>
<text text-anchor="start" x="1821.5" y="-205.2" font-family="Times,serif" font-weight="bold" font-size="16.00" fill="#0000ff">sb_self_pacer_tick</text>
<polygon fill="none" stroke="#000000" points="1569.5,-172 1569.5,-196 2094.5,-196 2094.5,-172 1569.5,-172"/>
<text text-anchor="start" x="1629" y="-181.2" font-family="Times,serif" font-size="16.00" fill="#0000ff">consumes ReceiveEvent </text>
<text text-anchor="start" x="1788" y="-181.2" font-family="Times,serif" font-weight="bold" font-size="16.00" fill="#0000ff">sb_AutomationRequest_notification</text>
<polygon fill="none" stroke="#000000" points="1569.5,-148 1569.5,-172 2094.5,-172 2094.5,-148 1569.5,-148"/>
<text text-anchor="start" x="1638" y="-157.2" font-family="Times,serif" font-size="16.00" fill="#0000ff">consumes ReceiveEvent </text>
<text text-anchor="start" x="1797" y="-157.2" font-family="Times,serif" font-weight="bold" font-size="16.00" fill="#0000ff">sb_OperatingRegion_notification</text>
<polygon fill="none" stroke="#000000" points="1569.5,-124 1569.5,-148 2094.5,-148 2094.5,-124 1569.5,-124"/>
<text text-anchor="start" x="1641.5" y="-133.2" font-family="Times,serif" font-size="16.00" fill="#0000ff">consumes ReceiveEvent </text>
<text text-anchor="start" x="1800.5" y="-133.2" font-family="Times,serif" font-weight="bold" font-size="16.00" fill="#0000ff">sb_LineSearchTask_notification</text>
<polygon fill="none" stroke="#000000" points="1569.5,-100 1569.5,-124 2094.5,-124 2094.5,-100 1569.5,-100"/>
<text text-anchor="start" x="1700.5" y="-109.2" font-family="Times,serif" font-size="16.00" fill="#0000ff">consumes TickTock </text>
<text text-anchor="start" x="1833.5" y="-109.2" font-family="Times,serif" font-weight="bold" font-size="16.00" fill="#0000ff">sb_self_pacer_tock</text>
</g>
<!-- uxas_UxAS_thread&#45;&gt;uxas_UxAS_thread -->
<g id="conn14" class="edge">
<title>uxas_UxAS_thread:sb_self_pacer_tick&#45;&gt;uxas_UxAS_thread:sb_self_pacer_tock</title>
<path fill="none" stroke="#0000ff" d="M1569.2166,-211.8165C1410.6574,-209.0469 1261,-195.7085 1261,-160 1261,-125.0587 1404.2959,-111.5366 1559.0107,-108.3768"/>
<polygon fill="#0000ff" stroke="#0000ff" points="1559.2847,-111.8723 1569.2166,-108.1835 1559.1521,-104.8736 1559.2847,-111.8723"/>
</g>
<!-- radio_RadioDriver -->
<g id="node2" class="node">
<title>radio_RadioDriver</title>
<polygon fill="none" stroke="#000000" points="320.5,-316 320.5,-340 893.5,-340 893.5,-316 320.5,-316"/>
<text text-anchor="start" x="541.5" y="-325.2" font-family="Times,serif" font-weight="bold" font-size="16.00" fill="#000000">radio_RadioDriver</text>
<polygon fill="none" stroke="#000000" points="320.5,-292 320.5,-316 893.5,-316 893.5,-292 320.5,-292"/>
<text text-anchor="start" x="418.5" y="-301.2" font-family="Times,serif" font-size="16.00" fill="#ff0000">dataport sp_union_art_DataContent_t </text>
<text text-anchor="start" x="665.5" y="-301.2" font-family="Times,serif" font-weight="bold" font-size="16.00" fill="#ff0000">sb_trusted_ids_out</text>
<polygon fill="none" stroke="#000000" points="320.5,-268 320.5,-292 893.5,-292 893.5,-268 320.5,-268"/>
<text text-anchor="start" x="323.5" y="-277.2" font-family="Times,serif" font-size="16.00" fill="#ff0000">dataport sb_queue_union_art_DataContent_1_t </text>
<text text-anchor="start" x="633.5" y="-277.2" font-family="Times,serif" font-weight="bold" font-size="16.00" fill="#ff0000">sb_automation_request_out_queue_1</text>
<polygon fill="none" stroke="#000000" points="320.5,-244 320.5,-268 893.5,-268 893.5,-244 320.5,-244"/>
<text text-anchor="start" x="333" y="-253.2" font-family="Times,serif" font-size="16.00" fill="#ff0000">dataport sb_queue_union_art_DataContent_1_t </text>
<text text-anchor="start" x="643" y="-253.2" font-family="Times,serif" font-weight="bold" font-size="16.00" fill="#ff0000">sb_operating_region_out_queue_1</text>
<polygon fill="none" stroke="#000000" points="320.5,-220 320.5,-244 893.5,-244 893.5,-220 320.5,-220"/>
<text text-anchor="start" x="335.5" y="-229.2" font-family="Times,serif" font-size="16.00" fill="#ff0000">dataport sb_queue_union_art_DataContent_1_t </text>
<text text-anchor="start" x="645.5" y="-229.2" font-family="Times,serif" font-weight="bold" font-size="16.00" fill="#ff0000">sb_line_search_task_out_queue_1</text>
<polygon fill="none" stroke="#000000" points="320.5,-196 320.5,-220 893.5,-220 893.5,-196 320.5,-196"/>
<text text-anchor="start" x="394.5" y="-205.2" font-family="Times,serif" font-size="16.00" fill="#0000ff">emits ReceiveEvent </text>
<text text-anchor="start" x="524.5" y="-205.2" font-family="Times,serif" font-weight="bold" font-size="16.00" fill="#0000ff">sb_automation_request_out_1_notification</text>
<polygon fill="none" stroke="#000000" points="320.5,-172 320.5,-196 893.5,-196 893.5,-172 320.5,-172"/>
<text text-anchor="start" x="404" y="-181.2" font-family="Times,serif" font-size="16.00" fill="#0000ff">emits ReceiveEvent </text>
<text text-anchor="start" x="534" y="-181.2" font-family="Times,serif" font-weight="bold" font-size="16.00" fill="#0000ff">sb_operating_region_out_1_notification</text>
<polygon fill="none" stroke="#000000" points="320.5,-148 320.5,-172 893.5,-172 893.5,-148 320.5,-148"/>
<text text-anchor="start" x="406.5" y="-157.2" font-family="Times,serif" font-size="16.00" fill="#0000ff">emits ReceiveEvent </text>
<text text-anchor="start" x="536.5" y="-157.2" font-family="Times,serif" font-weight="bold" font-size="16.00" fill="#0000ff">sb_line_search_task_out_1_notification</text>
<polygon fill="none" stroke="#000000" points="320.5,-124 320.5,-148 893.5,-148 893.5,-124 320.5,-124"/>
<text text-anchor="start" x="491.5" y="-133.2" font-family="Times,serif" font-size="16.00" fill="#0000ff">emits TickTock </text>
<text text-anchor="start" x="596.5" y="-133.2" font-family="Times,serif" font-weight="bold" font-size="16.00" fill="#0000ff">sb_self_pacer_tick</text>
<polygon fill="none" stroke="#000000" points="320.5,-100 320.5,-124 893.5,-124 893.5,-100 320.5,-100"/>
<text text-anchor="start" x="475.5" y="-109.2" font-family="Times,serif" font-size="16.00" fill="#0000ff">consumes TickTock </text>
<text text-anchor="start" x="608.5" y="-109.2" font-family="Times,serif" font-weight="bold" font-size="16.00" fill="#0000ff">sb_self_pacer_tock</text>
</g>
<!-- radio_RadioDriver&#45;&gt;radio_RadioDriver -->
<g id="conn15" class="edge">
<title>radio_RadioDriver:sb_self_pacer_tick&#45;&gt;radio_RadioDriver:sb_self_pacer_tock</title>
<path fill="none" stroke="#0000ff" d="M320.1413,-141.706C154.3997,-141.9225 0,-136.9609 0,-124 0,-111.3049 148.1319,-106.2843 309.9598,-106.2872"/>
<polygon fill="#0000ff" stroke="#0000ff" points="310.1389,-109.7872 320.1413,-106.294 310.1436,-102.7872 310.1389,-109.7872"/>
</g>
<!-- am_gate_CASE_AttestationGate -->
<g id="node3" class="node">
<title>am_gate_CASE_AttestationGate</title>
<polygon fill="none" stroke="#000000" points="945,-364 945,-388 1517,-388 1517,-364 945,-364"/>
<text text-anchor="start" x="1118" y="-373.2" font-family="Times,serif" font-weight="bold" font-size="16.00" fill="#000000">am_gate_CASE_AttestationGate</text>
<polygon fill="none" stroke="#000000" points="945,-340 945,-364 1517,-364 1517,-340 945,-340"/>
<text text-anchor="start" x="1057.5" y="-349.2" font-family="Times,serif" font-size="16.00" fill="#ff0000">dataport sp_union_art_DataContent_t </text>
<text text-anchor="start" x="1304.5" y="-349.2" font-family="Times,serif" font-weight="bold" font-size="16.00" fill="#ff0000">sb_trusted_ids</text>
<polygon fill="none" stroke="#000000" points="945,-316 945,-340 1517,-340 1517,-316 945,-316"/>
<text text-anchor="start" x="960.5" y="-325.2" font-family="Times,serif" font-size="16.00" fill="#ff0000">dataport sb_queue_union_art_DataContent_1_t </text>
<text text-anchor="start" x="1270.5" y="-325.2" font-family="Times,serif" font-weight="bold" font-size="16.00" fill="#ff0000">sb_AutomationRequest_in_queue</text>
<polygon fill="none" stroke="#000000" points="945,-292 945,-316 1517,-316 1517,-292 945,-292"/>
<text text-anchor="start" x="948" y="-301.2" font-family="Times,serif" font-size="16.00" fill="#ff0000">dataport sb_queue_union_art_DataContent_1_t </text>
<text text-anchor="start" x="1258" y="-301.2" font-family="Times,serif" font-weight="bold" font-size="16.00" fill="#ff0000">sb_AutomationRequest_out_queue_1</text>
<polygon fill="none" stroke="#000000" points="945,-268 945,-292 1517,-292 1517,-268 945,-268"/>
<text text-anchor="start" x="969.5" y="-277.2" font-family="Times,serif" font-size="16.00" fill="#ff0000">dataport sb_queue_union_art_DataContent_1_t </text>
<text text-anchor="start" x="1279.5" y="-277.2" font-family="Times,serif" font-weight="bold" font-size="16.00" fill="#ff0000">sb_OperatingRegion_in_queue</text>
<polygon fill="none" stroke="#000000" points="945,-244 945,-268 1517,-268 1517,-244 945,-244"/>
<text text-anchor="start" x="957" y="-253.2" font-family="Times,serif" font-size="16.00" fill="#ff0000">dataport sb_queue_union_art_DataContent_1_t </text>
<text text-anchor="start" x="1267" y="-253.2" font-family="Times,serif" font-weight="bold" font-size="16.00" fill="#ff0000">sb_OperatingRegion_out_queue_1</text>
<polygon fill="none" stroke="#000000" points="945,-220 945,-244 1517,-244 1517,-220 945,-220"/>
<text text-anchor="start" x="973.5" y="-229.2" font-family="Times,serif" font-size="16.00" fill="#ff0000">dataport sb_queue_union_art_DataContent_1_t </text>
<text text-anchor="start" x="1283.5" y="-229.2" font-family="Times,serif" font-weight="bold" font-size="16.00" fill="#ff0000">sb_LineSearchTask_in_queue</text>
<polygon fill="none" stroke="#000000" points="945,-196 945,-220 1517,-220 1517,-196 945,-196"/>
<text text-anchor="start" x="960.5" y="-205.2" font-family="Times,serif" font-size="16.00" fill="#ff0000">dataport sb_queue_union_art_DataContent_1_t </text>
<text text-anchor="start" x="1270.5" y="-205.2" font-family="Times,serif" font-weight="bold" font-size="16.00" fill="#ff0000">sb_LineSearchTask_out_queue_1</text>
<polygon fill="none" stroke="#000000" points="945,-172 945,-196 1517,-196 1517,-172 945,-172"/>
<text text-anchor="start" x="1018.5" y="-181.2" font-family="Times,serif" font-size="16.00" fill="#0000ff">emits ReceiveEvent </text>
<text text-anchor="start" x="1148.5" y="-181.2" font-family="Times,serif" font-weight="bold" font-size="16.00" fill="#0000ff">sb_AutomationRequest_out_1_notification</text>
<polygon fill="none" stroke="#000000" points="945,-148 945,-172 1517,-172 1517,-148 945,-148"/>
<text text-anchor="start" x="1027.5" y="-157.2" font-family="Times,serif" font-size="16.00" fill="#0000ff">emits ReceiveEvent </text>
<text text-anchor="start" x="1157.5" y="-157.2" font-family="Times,serif" font-weight="bold" font-size="16.00" fill="#0000ff">sb_OperatingRegion_out_1_notification</text>
<polygon fill="none" stroke="#000000" points="945,-124 945,-148 1517,-148 1517,-124 945,-124"/>
<text text-anchor="start" x="1031.5" y="-133.2" font-family="Times,serif" font-size="16.00" fill="#0000ff">emits ReceiveEvent </text>
<text text-anchor="start" x="1161.5" y="-133.2" font-family="Times,serif" font-weight="bold" font-size="16.00" fill="#0000ff">sb_LineSearchTask_out_1_notification</text>
<polygon fill="none" stroke="#000000" points="945,-100 945,-124 1517,-124 1517,-100 945,-100"/>
<text text-anchor="start" x="1115.5" y="-109.2" font-family="Times,serif" font-size="16.00" fill="#0000ff">emits TickTock </text>
<text text-anchor="start" x="1220.5" y="-109.2" font-family="Times,serif" font-weight="bold" font-size="16.00" fill="#0000ff">sb_self_pacer_tick</text>
<polygon fill="none" stroke="#000000" points="945,-76 945,-100 1517,-100 1517,-76 945,-76"/>
<text text-anchor="start" x="1017" y="-85.2" font-family="Times,serif" font-size="16.00" fill="#0000ff">consumes ReceiveEvent </text>
<text text-anchor="start" x="1176" y="-85.2" font-family="Times,serif" font-weight="bold" font-size="16.00" fill="#0000ff">sb_AutomationRequest_in_notification</text>
<polygon fill="none" stroke="#000000" points="945,-52 945,-76 1517,-76 1517,-52 945,-52"/>
<text text-anchor="start" x="1026" y="-61.2" font-family="Times,serif" font-size="16.00" fill="#0000ff">consumes ReceiveEvent </text>
<text text-anchor="start" x="1185" y="-61.2" font-family="Times,serif" font-weight="bold" font-size="16.00" fill="#0000ff">sb_OperatingRegion_in_notification</text>
<polygon fill="none" stroke="#000000" points="945,-28 945,-52 1517,-52 1517,-28 945,-28"/>
<text text-anchor="start" x="1029.5" y="-37.2" font-family="Times,serif" font-size="16.00" fill="#0000ff">consumes ReceiveEvent </text>
<text text-anchor="start" x="1188.5" y="-37.2" font-family="Times,serif" font-weight="bold" font-size="16.00" fill="#0000ff">sb_LineSearchTask_in_notification</text>
<polygon fill="none" stroke="#000000" points="945,-4 945,-28 1517,-28 1517,-4 945,-4"/>
<text text-anchor="start" x="1099.5" y="-13.2" font-family="Times,serif" font-size="16.00" fill="#0000ff">consumes TickTock </text>
<text text-anchor="start" x="1232.5" y="-13.2" font-family="Times,serif" font-weight="bold" font-size="16.00" fill="#0000ff">sb_self_pacer_tock</text>
</g>
<!-- radio_RadioDriver&#45;&gt;am_gate_CASE_AttestationGate -->
<g id="conn1" class="edge">
<title>radio_RadioDriver:sb_trusted_ids_out&#45;&gt;am_gate_CASE_AttestationGate:sb_trusted_ids</title>
<path fill="none" stroke="#ff0000" d="M893.5,-304C920.878,-304 915.8184,-340.75 935.087,-349.9375"/>
<polygon fill="#ff0000" stroke="#ff0000" points="934.4967,-353.3896 945,-352 935.9226,-346.5363 934.4967,-353.3896"/>
</g>
<!-- radio_RadioDriver&#45;&gt;am_gate_CASE_AttestationGate -->
<g id="conn2" class="edge">
<title>radio_RadioDriver:sb_automation_request_out_1_notification&#45;&gt;am_gate_CASE_AttestationGate:sb_AutomationRequest_in_notification</title>
<path fill="none" stroke="#0000ff" d="M893.5,-208C947.6834,-208 894.9982,-103.4083 934.9881,-89.5172"/>
<polygon fill="#0000ff" stroke="#0000ff" points="935.6373,-92.9589 945,-88 934.5884,-86.0379 935.6373,-92.9589"/>
</g>
<!-- radio_RadioDriver&#45;&gt;am_gate_CASE_AttestationGate -->
<g id="conn3" class="edge">
<title>radio_RadioDriver:sb_automation_request_out_queue_1&#45;&gt;am_gate_CASE_AttestationGate:sb_AutomationRequest_in_queue</title>
<path fill="none" stroke="#ff0000" d="M893.5,-280C920.878,-280 915.8184,-316.75 935.087,-325.9375"/>
<polygon fill="#ff0000" stroke="#ff0000" points="934.4967,-329.3896 945,-328 935.9226,-322.5363 934.4967,-329.3896"/>
</g>
<!-- radio_RadioDriver&#45;&gt;am_gate_CASE_AttestationGate -->
<g id="conn4" class="edge">
<title>radio_RadioDriver:sb_operating_region_out_1_notification&#45;&gt;am_gate_CASE_AttestationGate:sb_OperatingRegion_in_notification</title>
<path fill="none" stroke="#0000ff" d="M893.5,-184C947.6834,-184 894.9982,-79.4083 934.9881,-65.5172"/>
<polygon fill="#0000ff" stroke="#0000ff" points="935.6373,-68.9589 945,-64 934.5884,-62.0379 935.6373,-68.9589"/>
</g>
<!-- radio_RadioDriver&#45;&gt;am_gate_CASE_AttestationGate -->
<g id="conn5" class="edge">
<title>radio_RadioDriver:sb_operating_region_out_queue_1&#45;&gt;am_gate_CASE_AttestationGate:sb_OperatingRegion_in_queue</title>
<path fill="none" stroke="#ff0000" d="M893.5,-256C914.8066,-256 918.8444,-273.0859 934.7545,-278.4253"/>
<polygon fill="#ff0000" stroke="#ff0000" points="934.5843,-281.9402 945,-280 935.6478,-275.0214 934.5843,-281.9402"/>
</g>
<!-- radio_RadioDriver&#45;&gt;am_gate_CASE_AttestationGate -->
<g id="conn6" class="edge">
<title>radio_RadioDriver:sb_line_search_task_out_1_notification&#45;&gt;am_gate_CASE_AttestationGate:sb_LineSearchTask_in_notification</title>
<path fill="none" stroke="#0000ff" d="M893.5,-160C947.6834,-160 894.9982,-55.4083 934.9881,-41.5172"/>
<polygon fill="#0000ff" stroke="#0000ff" points="935.6373,-44.9589 945,-40 934.5884,-38.0379 935.6373,-44.9589"/>
</g>
<!-- radio_RadioDriver&#45;&gt;am_gate_CASE_AttestationGate -->
<g id="conn7" class="edge">
<title>radio_RadioDriver:sb_line_search_task_out_queue_1&#45;&gt;am_gate_CASE_AttestationGate:sb_LineSearchTask_in_queue</title>
<path fill="none" stroke="#ff0000" d="M893.5,-232C912.6337,-232 919.7714,-232 934.969,-232"/>
<polygon fill="#ff0000" stroke="#ff0000" points="935,-235.5001 945,-232 935,-228.5001 935,-235.5001"/>
</g>
<!-- am_gate_CASE_AttestationGate&#45;&gt;uxas_UxAS_thread -->
<g id="conn8" class="edge">
<title>am_gate_CASE_AttestationGate:sb_AutomationRequest_out_1_notification&#45;&gt;uxas_UxAS_thread:sb_AutomationRequest_notification</title>
<path fill="none" stroke="#0000ff" d="M1517,-184C1536.5052,-184 1543.7816,-184 1559.2742,-184"/>
<polygon fill="#0000ff" stroke="#0000ff" points="1559.5,-187.5001 1569.5,-184 1559.5,-180.5001 1559.5,-187.5001"/>
</g>
<!-- am_gate_CASE_AttestationGate&#45;&gt;uxas_UxAS_thread -->
<g id="conn9" class="edge">
<title>am_gate_CASE_AttestationGate:sb_AutomationRequest_out_queue_1&#45;&gt;uxas_UxAS_thread:sb_AutomationRequest_queue</title>
<path fill="none" stroke="#ff0000" d="M1517,-304C1538.8476,-304 1542.9523,-286.5962 1559.5324,-281.4294"/>
<polygon fill="#ff0000" stroke="#ff0000" points="1560.0981,-284.8842 1569.5,-280 1559.1044,-277.9551 1560.0981,-284.8842"/>
</g>
<!-- am_gate_CASE_AttestationGate&#45;&gt;uxas_UxAS_thread -->
<g id="conn10" class="edge">
<title>am_gate_CASE_AttestationGate:sb_OperatingRegion_out_1_notification&#45;&gt;uxas_UxAS_thread:sb_OperatingRegion_notification</title>
<path fill="none" stroke="#0000ff" d="M1517,-160C1536.5052,-160 1543.7816,-160 1559.2742,-160"/>
<polygon fill="#0000ff" stroke="#0000ff" points="1559.5,-163.5001 1569.5,-160 1559.5,-156.5001 1559.5,-163.5001"/>
</g>
<!-- am_gate_CASE_AttestationGate&#45;&gt;uxas_UxAS_thread -->
<g id="conn11" class="edge">
<title>am_gate_CASE_AttestationGate:sb_OperatingRegion_out_queue_1&#45;&gt;uxas_UxAS_thread:sb_OperatingRegion_queue</title>
<path fill="none" stroke="#ff0000" d="M1517,-256C1536.5052,-256 1543.7816,-256 1559.2742,-256"/>
<polygon fill="#ff0000" stroke="#ff0000" points="1559.5,-259.5001 1569.5,-256 1559.5,-252.5001 1559.5,-259.5001"/>
</g>
<!-- am_gate_CASE_AttestationGate&#45;&gt;uxas_UxAS_thread -->
<g id="conn12" class="edge">
<title>am_gate_CASE_AttestationGate:sb_LineSearchTask_out_1_notification&#45;&gt;uxas_UxAS_thread:sb_LineSearchTask_notification</title>
<path fill="none" stroke="#0000ff" d="M1517,-136C1536.5052,-136 1543.7816,-136 1559.2742,-136"/>
<polygon fill="#0000ff" stroke="#0000ff" points="1559.5,-139.5001 1569.5,-136 1559.5,-132.5001 1559.5,-139.5001"/>
</g>
<!-- am_gate_CASE_AttestationGate&#45;&gt;uxas_UxAS_thread -->
<g id="conn13" class="edge">
<title>am_gate_CASE_AttestationGate:sb_LineSearchTask_out_queue_1&#45;&gt;uxas_UxAS_thread:sb_LineSearchTask_queue</title>
<path fill="none" stroke="#ff0000" d="M1517,-208C1538.8476,-208 1542.9523,-225.4038 1559.5324,-230.5706"/>
<polygon fill="#ff0000" stroke="#ff0000" points="1559.1044,-234.0449 1569.5,-232 1560.0981,-227.1158 1559.1044,-234.0449"/>
</g>
<!-- am_gate_CASE_AttestationGate&#45;&gt;am_gate_CASE_AttestationGate -->
<g id="conn16" class="edge">
<title>am_gate_CASE_AttestationGate:sb_self_pacer_tick&#45;&gt;am_gate_CASE_AttestationGate:sb_self_pacer_tock</title>
<path fill="none" stroke="#0000ff" d="M944.8885,-115.5893C784.7576,-112.3676 637,-98.8179 637,-64 637,-29.9302 778.4769,-16.2244 934.586,-12.6327"/>
<polygon fill="#0000ff" stroke="#0000ff" points="934.9663,-16.1254 944.8885,-12.4107 934.8154,-9.1271 934.9663,-16.1254"/>
</g>
<!-- connectiontypekey -->
<g id="node4" class="node">
<title>connectiontypekey</title>
<polygon fill="none" stroke="#000000" points="488.5,-534 488.5,-558 724.5,-558 724.5,-534 488.5,-534"/>
<text text-anchor="start" x="526.5" y="-543.2" font-family="Times,serif" font-weight="bold" font-size="16.00" fill="#000000">Key: Connection Types</text>
<polygon fill="none" stroke="#000000" points="488.5,-510 488.5,-534 674.5,-534 674.5,-510 488.5,-510"/>
<text text-anchor="start" x="529" y="-518.2" font-family="Times,serif" font-size="16.00" fill="#ff0000">seL4SharedData</text>
<polygon fill="#ff0000" stroke="transparent" points="674.5,-510 674.5,-534 724.5,-534 724.5,-510 674.5,-510"/>
<polygon fill="none" stroke="#000000" points="674.5,-510 674.5,-534 724.5,-534 724.5,-510 674.5,-510"/>
<text text-anchor="start" x="689" y="-518.2" font-family="Times,serif" font-size="16.00" fill="#000000">red</text>
<polygon fill="none" stroke="#000000" points="488.5,-486 488.5,-510 674.5,-510 674.5,-486 488.5,-486"/>
<text text-anchor="start" x="527" y="-494.2" font-family="Times,serif" font-size="16.00" fill="#0000ff">seL4Notification</text>
<polygon fill="#0000ff" stroke="transparent" points="674.5,-486 674.5,-510 724.5,-510 724.5,-486 674.5,-486"/>
<polygon fill="none" stroke="#000000" points="674.5,-486 674.5,-510 724.5,-510 724.5,-486 674.5,-486"/>
<text text-anchor="start" x="685.5" y="-494.2" font-family="Times,serif" font-size="16.00" fill="#000000">blue</text>
<polygon fill="none" stroke="#000000" points="488.5,-462 488.5,-486 674.5,-486 674.5,-462 488.5,-462"/>
<text text-anchor="start" x="537.5" y="-470.2" font-family="Times,serif" font-size="16.00" fill="#ffa500">seL4RPCCall</text>
<polygon fill="#ffa500" stroke="transparent" points="674.5,-462 674.5,-486 724.5,-486 724.5,-462 674.5,-462"/>
<polygon fill="none" stroke="#000000" points="674.5,-462 674.5,-486 724.5,-486 724.5,-462 674.5,-462"/>
<text text-anchor="start" x="677.5" y="-470.2" font-family="Times,serif" font-size="16.00" fill="#000000">orange</text>
<polygon fill="none" stroke="#000000" points="488.5,-438 488.5,-462 674.5,-462 674.5,-438 488.5,-438"/>
<text text-anchor="start" x="528.5" y="-446.2" font-family="Times,serif" font-size="16.00" fill="#00ff00">seL4TimeServer</text>
<polygon fill="#00ff00" stroke="transparent" points="674.5,-438 674.5,-462 724.5,-462 724.5,-438 674.5,-438"/>
<polygon fill="none" stroke="#000000" points="674.5,-438 674.5,-462 724.5,-462 724.5,-438 674.5,-438"/>
<text text-anchor="start" x="681.5" y="-446.2" font-family="Times,serif" font-size="16.00" fill="#000000">green</text>
<polygon fill="none" stroke="#000000" points="488.5,-414 488.5,-438 674.5,-438 674.5,-414 488.5,-414"/>
<text text-anchor="start" x="491.5" y="-422.2" font-family="Times,serif" font-size="16.00" fill="#a52a2a">seL4GlobalAsynchCallback</text>
<polygon fill="#a52a2a" stroke="transparent" points="674.5,-414 674.5,-438 724.5,-438 724.5,-414 674.5,-414"/>
<polygon fill="none" stroke="#000000" points="674.5,-414 674.5,-438 724.5,-438 724.5,-414 674.5,-414"/>
<text text-anchor="start" x="678.5" y="-422.2" font-family="Times,serif" font-size="16.00" fill="#000000">brown</text>
<polygon fill="none" stroke="#000000" points="488.5,-390 488.5,-414 674.5,-414 674.5,-390 488.5,-390"/>
<text text-anchor="start" x="498" y="-398.2" font-family="Times,serif" font-size="16.00" fill="#ffff00">seL4VMDTBPassthrough</text>
<polygon fill="#ffff00" stroke="transparent" points="674.5,-390 674.5,-414 724.5,-414 724.5,-390 674.5,-390"/>
<polygon fill="none" stroke="#000000" points="674.5,-390 674.5,-414 724.5,-414 724.5,-390 674.5,-390"/>
<text text-anchor="start" x="677.5" y="-398.2" font-family="Times,serif" font-size="16.00" fill="#000000">yellow</text>
<polygon fill="none" stroke="#000000" points="488.5,-366 488.5,-390 674.5,-390 674.5,-366 488.5,-366"/>
<text text-anchor="start" x="497" y="-374.2" font-family="Times,serif" font-size="16.00" fill="#ffc0cb">seL4SharedDataWithCaps</text>
<polygon fill="#ffc0cb" stroke="transparent" points="674.5,-366 674.5,-390 724.5,-390 724.5,-366 674.5,-366"/>
<polygon fill="none" stroke="#000000" points="674.5,-366 674.5,-390 724.5,-390 724.5,-366 674.5,-366"/>
<text text-anchor="start" x="684.5" y="-374.2" font-family="Times,serif" font-size="16.00" fill="#000000">pink</text>
</g>
<!-- interfacetypekey -->
<g id="node5" class="node">
<title>interfacetypekey</title>
<polygon fill="none" stroke="#000000" points="532.5,-704 532.5,-728 680.5,-728 680.5,-704 532.5,-704"/>
<text text-anchor="start" x="535.5" y="-713.2" font-family="Times,serif" font-weight="bold" font-size="16.00" fill="#000000">Key: Interface Types</text>
<polygon fill="none" stroke="#000000" points="532.5,-680 532.5,-704 616.5,-704 616.5,-680 532.5,-680"/>
<text text-anchor="start" x="548" y="-688.2" font-family="Times,serif" font-size="16.00" fill="#ff0000">dataport</text>
<polygon fill="#ff0000" stroke="transparent" points="616.5,-680 616.5,-704 680.5,-704 680.5,-680 616.5,-680"/>
<polygon fill="none" stroke="#000000" points="616.5,-680 616.5,-704 680.5,-704 680.5,-680 616.5,-680"/>
<text text-anchor="start" x="638" y="-688.2" font-family="Times,serif" font-size="16.00" fill="#000000">red</text>
<polygon fill="none" stroke="#000000" points="532.5,-656 532.5,-680 616.5,-680 616.5,-656 532.5,-656"/>
<text text-anchor="start" x="557" y="-664.2" font-family="Times,serif" font-size="16.00" fill="#0000ff">emits</text>
<polygon fill="#0000ff" stroke="transparent" points="616.5,-656 616.5,-680 680.5,-680 680.5,-656 616.5,-656"/>
<polygon fill="none" stroke="#000000" points="616.5,-656 616.5,-680 680.5,-680 680.5,-656 616.5,-656"/>
<text text-anchor="start" x="634.5" y="-664.2" font-family="Times,serif" font-size="16.00" fill="#000000">blue</text>
<polygon fill="none" stroke="#000000" points="532.5,-632 532.5,-656 616.5,-656 616.5,-632 532.5,-632"/>
<text text-anchor="start" x="542.5" y="-640.2" font-family="Times,serif" font-size="16.00" fill="#0000ff">consumes</text>
<polygon fill="#0000ff" stroke="transparent" points="616.5,-632 616.5,-656 680.5,-656 680.5,-632 616.5,-632"/>
<polygon fill="none" stroke="#000000" points="616.5,-632 616.5,-656 680.5,-656 680.5,-632 616.5,-632"/>
<text text-anchor="start" x="634.5" y="-640.2" font-family="Times,serif" font-size="16.00" fill="#000000">blue</text>
<polygon fill="none" stroke="#000000" points="532.5,-608 532.5,-632 616.5,-632 616.5,-608 532.5,-608"/>
<text text-anchor="start" x="546.5" y="-616.2" font-family="Times,serif" font-size="16.00" fill="#ffa500">provides</text>
<polygon fill="#ffa500" stroke="transparent" points="616.5,-608 616.5,-632 680.5,-632 680.5,-608 616.5,-608"/>
<polygon fill="none" stroke="#000000" points="616.5,-608 616.5,-632 680.5,-632 680.5,-608 616.5,-608"/>
<text text-anchor="start" x="626.5" y="-616.2" font-family="Times,serif" font-size="16.00" fill="#000000">orange</text>
<polygon fill="none" stroke="#000000" points="532.5,-584 532.5,-608 616.5,-608 616.5,-584 532.5,-584"/>
<text text-anchor="start" x="560.5" y="-592.2" font-family="Times,serif" font-size="16.00" fill="#ffa500">uses</text>
<polygon fill="#ffa500" stroke="transparent" points="616.5,-584 616.5,-608 680.5,-608 680.5,-584 616.5,-584"/>
<polygon fill="none" stroke="#000000" points="616.5,-584 616.5,-608 680.5,-608 680.5,-584 616.5,-584"/>
<text text-anchor="start" x="626.5" y="-592.2" font-family="Times,serif" font-size="16.00" fill="#000000">orange</text>
</g>
</g>
</svg>
