<?xml version="1.0" encoding="UTF-8" standalone="no"?>
<!DOCTYPE svg PUBLIC "-//W3C//DTD SVG 1.1//EN"
 "http://www.w3.org/Graphics/SVG/1.1/DTD/svg11.dtd">
<!-- Generated by graphviz version 2.40.1 (20161225.0304)
 -->
<!-- Title: %3 Pages: 1 -->
<svg width="807pt" height="409pt"
 viewBox="0.00 0.00 806.97 409.00" xmlns="http://www.w3.org/2000/svg" xmlns:xlink="http://www.w3.org/1999/xlink">
<g id="graph0" class="graph" transform="scale(1 1) rotate(0) translate(4 405)">
<title>%3</title>
<polygon fill="#ffffff" stroke="transparent" points="-4,4 -4,-405 802.9728,-405 802.9728,4 -4,4"/>
<!-- uxas_UxAS_thread -->
<g id="node1" class="node">
<title>uxas_UxAS_thread</title>
<path fill="none" stroke="#000000" d="M319,-109C319,-109 12,-109 12,-109 6,-109 0,-103 0,-97 0,-97 0,-85 0,-85 0,-79 6,-73 12,-73 12,-73 319,-73 319,-73 325,-73 331,-79 331,-85 331,-85 331,-97 331,-97 331,-103 325,-109 319,-109"/>
<text text-anchor="middle" x="165.5" y="-87.3" font-family="Times,serif" font-size="14.00" fill="#000000">uxas_UxAS_thread::UxAS_thr_Impl_uxas_UxAS_thread</text>
</g>
<!-- conn14 -->
<g id="node10" class="node">
<title>conn14</title>
<polygon fill="none" stroke="#000000" points="165.5,-36 114.0544,-18 165.5,0 216.9456,-18 165.5,-36"/>
<text text-anchor="middle" x="165.5" y="-14.3" font-family="Times,serif" font-size="14.00" fill="#000000">conn14</text>
</g>
<!-- uxas_UxAS_thread&#45;&gt;conn14 -->
<g id="edge20" class="edge">
<title>uxas_UxAS_thread&#45;&gt;conn14</title>
<path fill="none" stroke="#000000" d="M159.5843,-72.9551C158.7347,-64.3656 158.534,-53.9258 158.9822,-44.4622"/>
<polygon fill="#000000" stroke="#000000" points="162.4832,-44.5828 159.7639,-34.3429 155.504,-44.0435 162.4832,-44.5828"/>
</g>
<!-- radio_RadioDriver -->
<g id="node2" class="node">
<title>radio_RadioDriver</title>
<path fill="none" stroke="#000000" d="M579,-401C579,-401 246,-401 246,-401 240,-401 234,-395 234,-389 234,-389 234,-377 234,-377 234,-371 240,-365 246,-365 246,-365 579,-365 579,-365 585,-365 591,-371 591,-377 591,-377 591,-389 591,-389 591,-395 585,-401 579,-401"/>
<text text-anchor="middle" x="412.5" y="-379.3" font-family="Times,serif" font-size="14.00" fill="#000000">radio_RadioDriver::RadioDriver_thr_Impl_radio_RadioDriver</text>
</g>
<!-- am_gate_CASE_AttestationGate -->
<g id="node3" class="node">
<title>am_gate_CASE_AttestationGate</title>
<path fill="none" stroke="#000000" d="M587.5,-255C587.5,-255 41.5,-255 41.5,-255 35.5,-255 29.5,-249 29.5,-243 29.5,-243 29.5,-231 29.5,-231 29.5,-225 35.5,-219 41.5,-219 41.5,-219 587.5,-219 587.5,-219 593.5,-219 599.5,-225 599.5,-231 599.5,-231 599.5,-243 599.5,-243 599.5,-249 593.5,-255 587.5,-255"/>
<text text-anchor="middle" x="314.5" y="-233.3" font-family="Times,serif" font-size="14.00" fill="#000000">am_gate_CASE_AttestationGate::CASE_AttestationGate_thr_Impl_am_gate_CASE_AttestationGate</text>
</g>
<!-- radio_RadioDriver&#45;&gt;am_gate_CASE_AttestationGate -->
<g id="edge1" class="edge">
<title>radio_RadioDriver&#45;&gt;am_gate_CASE_AttestationGate</title>
<path fill="none" stroke="#000000" d="M229.8822,-363.1636C206.317,-358.7828 182.6838,-353.4599 160.5,-347 140.8292,-341.2718 129.6073,-345.2157 118.5,-328 95.9036,-292.9769 129.8334,-271.2136 175.483,-257.7974"/>
<polygon fill="none" stroke="#000000" points="240.6832,-361.0475 239.2629,-368.9204 231.39,-367.5001 232.8103,-359.6272 240.6832,-361.0475"/>
<polyline fill="none" stroke="#000000" points="232.1001,-363.5636 230.1319,-363.2086 "/>
<polygon fill="none" stroke="#000000" points="184.3199,-251.2041 186.4519,-258.9148 178.7411,-261.0468 176.6092,-253.336 184.3199,-251.2041"/>
<polyline fill="none" stroke="#000000" points="177.6752,-257.1914 175.7475,-257.7244 "/>
<text text-anchor="middle" x="135.5" y="-306.3" font-family="Times,serif" font-size="14.00" fill="#000000">conn1</text>
</g>
<!-- radio_RadioDriver&#45;&gt;am_gate_CASE_AttestationGate -->
<g id="edge4" class="edge">
<title>radio_RadioDriver&#45;&gt;am_gate_CASE_AttestationGate</title>
<path fill="none" stroke="#000000" d="M264.455,-362.7235C228.879,-354.4437 198.2731,-343.1477 188.5,-328 179.8258,-314.5554 179.8258,-305.4446 188.5,-292 197.6944,-277.7491 211.4917,-267.1721 226.6284,-259.3272"/>
<polygon fill="none" stroke="#000000" points="275.4756,-361.0748 273.7402,-368.8843 265.9306,-367.1489 267.666,-359.3394 275.4756,-361.0748"/>
<polyline fill="none" stroke="#000000" points="266.7983,-363.2441 264.846,-362.8103 "/>
<polygon fill="none" stroke="#000000" points="233.9495,-251.4062 237.3919,-258.6277 230.1704,-262.0701 226.728,-254.8486 233.9495,-251.4062"/>
<polyline fill="none" stroke="#000000" points="228.4492,-258.4593 226.6438,-259.3199 "/>
<text text-anchor="middle" x="205.5" y="-306.3" font-family="Times,serif" font-size="14.00" fill="#000000">conn3</text>
</g>
<!-- radio_RadioDriver&#45;&gt;am_gate_CASE_AttestationGate -->
<g id="edge7" class="edge">
<title>radio_RadioDriver&#45;&gt;am_gate_CASE_AttestationGate</title>
<path fill="none" stroke="#000000" d="M325.7901,-361.9798C295.4284,-352.6467 266.7983,-340.8619 258.5,-328 249.8258,-314.5554 252.3105,-306.7543 258.5,-292 263.3185,-280.5137 271.8354,-270.2181 280.7954,-261.7271"/>
<polygon fill="none" stroke="#000000" points="336.8252,-361.088 334.545,-368.7562 326.8768,-366.476 329.157,-358.8078 336.8252,-361.088"/>
<polyline fill="none" stroke="#000000" points="328.0169,-362.6419 326.0999,-362.0718 "/>
<polygon fill="none" stroke="#000000" points="285.7025,-252.0382 291.0065,-258.0272 285.0174,-263.3312 279.7135,-257.3422 285.7025,-252.0382"/>
<polyline fill="none" stroke="#000000" points="282.3654,-260.3367 280.8682,-261.6627 "/>
<text text-anchor="middle" x="275.5" y="-306.3" font-family="Times,serif" font-size="14.00" fill="#000000">conn5</text>
</g>
<!-- radio_RadioDriver&#45;&gt;am_gate_CASE_AttestationGate -->
<g id="edge10" class="edge">
<title>radio_RadioDriver&#45;&gt;am_gate_CASE_AttestationGate</title>
<path fill="none" stroke="#000000" d="M357.5057,-359.7857C344.324,-351.6384 331.7039,-341.1461 323.5,-328 311.9235,-309.4496 310.1986,-284.5185 311.0756,-265.4425"/>
<polygon fill="none" stroke="#000000" points="368.2068,-361.3404 364.2097,-368.2703 357.2798,-364.2731 361.277,-357.3432 368.2068,-361.3404"/>
<polyline fill="none" stroke="#000000" points="359.2784,-360.8082 357.5459,-359.8089 "/>
<polygon fill="none" stroke="#000000" points="307.8213,-254.9649 315.8006,-255.5408 315.2247,-263.52 307.2454,-262.9441 307.8213,-254.9649"/>
<polyline fill="none" stroke="#000000" points="311.2351,-263.2321 311.0911,-265.2269 "/>
<text text-anchor="middle" x="340.5" y="-306.3" font-family="Times,serif" font-size="14.00" fill="#000000">conn7</text>
</g>
<!-- conn2 -->
<g id="node4" class="node">
<title>conn2</title>
<polygon fill="none" stroke="#000000" points="412.5,-328 366.5842,-310 412.5,-292 458.4158,-310 412.5,-328"/>
<text text-anchor="middle" x="412.5" y="-306.3" font-family="Times,serif" font-size="14.00" fill="#000000">conn2</text>
</g>
<!-- radio_RadioDriver&#45;&gt;conn2 -->
<g id="edge2" class="edge">
<title>radio_RadioDriver&#45;&gt;conn2</title>
<path fill="none" stroke="#000000" d="M412.5,-364.9551C412.5,-356.8828 412.5,-347.1764 412.5,-338.1817"/>
<polygon fill="#000000" stroke="#000000" points="416.0001,-338.0903 412.5,-328.0904 409.0001,-338.0904 416.0001,-338.0903"/>
</g>
<!-- conn4 -->
<g id="node5" class="node">
<title>conn4</title>
<polygon fill="none" stroke="#000000" points="522.5,-328 476.5842,-310 522.5,-292 568.4158,-310 522.5,-328"/>
<text text-anchor="middle" x="522.5" y="-306.3" font-family="Times,serif" font-size="14.00" fill="#000000">conn4</text>
</g>
<!-- radio_RadioDriver&#45;&gt;conn4 -->
<g id="edge5" class="edge">
<title>radio_RadioDriver&#45;&gt;conn4</title>
<path fill="none" stroke="#000000" d="M439.691,-364.9551C457.1362,-353.3778 479.6468,-338.439 496.7936,-327.0597"/>
<polygon fill="#000000" stroke="#000000" points="498.8193,-329.916 505.2161,-321.4702 494.9486,-324.0835 498.8193,-329.916"/>
</g>
<!-- conn6 -->
<g id="node6" class="node">
<title>conn6</title>
<polygon fill="none" stroke="#000000" points="632.5,-328 586.5842,-310 632.5,-292 678.4158,-310 632.5,-328"/>
<text text-anchor="middle" x="632.5" y="-306.3" font-family="Times,serif" font-size="14.00" fill="#000000">conn6</text>
</g>
<!-- radio_RadioDriver&#45;&gt;conn6 -->
<g id="edge8" class="edge">
<title>radio_RadioDriver&#45;&gt;conn6</title>
<path fill="none" stroke="#000000" d="M466.882,-364.9551C507.7632,-351.3899 562.5529,-333.2097 597.6979,-321.548"/>
<polygon fill="#000000" stroke="#000000" points="599.1103,-324.767 607.4991,-318.2958 596.9057,-318.1232 599.1103,-324.767"/>
</g>
<!-- conn15 -->
<g id="node11" class="node">
<title>conn15</title>
<polygon fill="none" stroke="#000000" points="747.5,-328 696.0544,-310 747.5,-292 798.9456,-310 747.5,-328"/>
<text text-anchor="middle" x="747.5" y="-306.3" font-family="Times,serif" font-size="14.00" fill="#000000">conn15</text>
</g>
<!-- radio_RadioDriver&#45;&gt;conn15 -->
<g id="edge22" class="edge">
<title>radio_RadioDriver&#45;&gt;conn15</title>
<path fill="none" stroke="#000000" d="M506.484,-364.9577C557.5759,-355.1618 621.6923,-342.1686 678.5,-328 687.7413,-325.6951 697.6817,-322.8606 707.1217,-320.1286"/>
<polygon fill="#000000" stroke="#000000" points="708.0968,-323.4901 716.7276,-317.3452 706.1486,-316.7667 708.0968,-323.4901"/>
</g>
<!-- am_gate_CASE_AttestationGate&#45;&gt;uxas_UxAS_thread -->
<g id="edge13" class="edge">
<title>am_gate_CASE_AttestationGate&#45;&gt;uxas_UxAS_thread</title>
<path fill="none" stroke="#000000" d="M132.6069,-217.1276C109.1351,-212.7526 85.5958,-207.441 63.5,-201 43.8308,-195.2664 32.6073,-199.2157 21.5,-182 12.8258,-168.5554 12.8258,-159.4446 21.5,-146 29.4839,-133.6254 57.2182,-121.7253 86.2453,-112.1789"/>
<polygon fill="none" stroke="#000000" points="143.3697,-215.0097 141.9455,-222.8819 134.0733,-221.4577 135.4975,-213.5855 143.3697,-215.0097"/>
<polyline fill="none" stroke="#000000" points="134.7854,-217.5216 132.8173,-217.1656 "/>
<polygon fill="none" stroke="#000000" points="94.8975,-105.2233 97.3267,-112.8456 89.7045,-115.2748 87.2752,-107.6525 94.8975,-105.2233"/>
<polyline fill="none" stroke="#000000" points="88.4898,-111.4637 86.5843,-112.071 "/>
<text text-anchor="middle" x="38.5" y="-160.3" font-family="Times,serif" font-size="14.00" fill="#000000">conn9</text>
</g>
<!-- am_gate_CASE_AttestationGate&#45;&gt;uxas_UxAS_thread -->
<g id="edge16" class="edge">
<title>am_gate_CASE_AttestationGate&#45;&gt;uxas_UxAS_thread</title>
<path fill="none" stroke="#000000" d="M169.6549,-216.8269C133.3713,-208.4902 101.788,-197.137 91.5,-182 82.5061,-168.7671 84.3136,-160.2953 91.5,-146 97.8061,-133.4559 108.4778,-123.0512 119.7833,-114.7923"/>
<polygon fill="none" stroke="#000000" points="180.3426,-215.0837 178.6228,-222.8967 170.8099,-221.1769 172.5297,-213.3639 180.3426,-215.0837"/>
<polyline fill="none" stroke="#000000" points="171.6698,-217.2704 169.7165,-216.8404 "/>
<polygon fill="none" stroke="#000000" points="125.8258,-105.8496 130.3225,-112.4663 123.7058,-116.963 119.2091,-110.3463 125.8258,-105.8496"/>
<polyline fill="none" stroke="#000000" points="121.4575,-113.6546 119.8033,-114.7788 "/>
<text text-anchor="middle" x="111.5" y="-160.3" font-family="Times,serif" font-size="14.00" fill="#000000">conn11</text>
</g>
<!-- am_gate_CASE_AttestationGate&#45;&gt;uxas_UxAS_thread -->
<g id="edge19" class="edge">
<title>am_gate_CASE_AttestationGate&#45;&gt;uxas_UxAS_thread</title>
<path fill="none" stroke="#000000" d="M230.9203,-215.9717C200.4811,-206.4874 171.3355,-194.5932 162.5,-182 149.8021,-163.9017 151.8744,-138.4167 156.368,-119.0184"/>
<polygon fill="none" stroke="#000000" points="241.9814,-215.1351 239.6676,-222.7932 232.0095,-220.4794 234.3233,-212.8213 241.9814,-215.1351"/>
<polyline fill="none" stroke="#000000" points="233.1664,-216.6503 231.2519,-216.0718 "/>
<polygon fill="none" stroke="#000000" points="155.0863,-108.206 162.8211,-110.2488 160.7784,-117.9836 153.0436,-115.9408 155.0863,-108.206"/>
<polyline fill="none" stroke="#000000" points="156.911,-116.9622 156.4003,-118.8959 "/>
<text text-anchor="middle" x="182.5" y="-160.3" font-family="Times,serif" font-size="14.00" fill="#000000">conn13</text>
</g>
<!-- conn8 -->
<g id="node7" class="node">
<title>conn8</title>
<polygon fill="none" stroke="#000000" points="257.5,-182 211.5842,-164 257.5,-146 303.4158,-164 257.5,-182"/>
<text text-anchor="middle" x="257.5" y="-160.3" font-family="Times,serif" font-size="14.00" fill="#000000">conn8</text>
</g>
<!-- am_gate_CASE_AttestationGate&#45;&gt;conn8 -->
<g id="edge11" class="edge">
<title>am_gate_CASE_AttestationGate&#45;&gt;conn8</title>
<path fill="none" stroke="#000000" d="M300.4101,-218.9551C292.6061,-208.9604 282.8459,-196.4605 274.6065,-185.9083"/>
<polygon fill="#000000" stroke="#000000" points="277.3042,-183.6762 268.3912,-177.9483 271.7869,-187.9843 277.3042,-183.6762"/>
</g>
<!-- conn10 -->
<g id="node8" class="node">
<title>conn10</title>
<polygon fill="none" stroke="#000000" points="372.5,-182 321.0544,-164 372.5,-146 423.9456,-164 372.5,-182"/>
<text text-anchor="middle" x="372.5" y="-160.3" font-family="Times,serif" font-size="14.00" fill="#000000">conn10</text>
</g>
<!-- am_gate_CASE_AttestationGate&#45;&gt;conn10 -->
<g id="edge14" class="edge">
<title>am_gate_CASE_AttestationGate&#45;&gt;conn10</title>
<path fill="none" stroke="#000000" d="M328.8371,-218.9551C336.6721,-209.0937 346.445,-196.7934 354.7572,-186.3314"/>
<polygon fill="#000000" stroke="#000000" points="357.565,-188.4239 361.0454,-178.417 352.0842,-184.0693 357.565,-188.4239"/>
</g>
<!-- conn12 -->
<g id="node9" class="node">
<title>conn12</title>
<polygon fill="none" stroke="#000000" points="493.5,-182 442.0544,-164 493.5,-146 544.9456,-164 493.5,-182"/>
<text text-anchor="middle" x="493.5" y="-160.3" font-family="Times,serif" font-size="14.00" fill="#000000">conn12</text>
</g>
<!-- am_gate_CASE_AttestationGate&#45;&gt;conn12 -->
<g id="edge17" class="edge">
<title>am_gate_CASE_AttestationGate&#45;&gt;conn12</title>
<path fill="none" stroke="#000000" d="M358.7472,-218.9551C390.0495,-206.1893 431.3737,-189.3364 459.9674,-177.6753"/>
<polygon fill="#000000" stroke="#000000" points="461.5752,-180.7995 469.5131,-173.7824 458.9318,-174.3178 461.5752,-180.7995"/>
</g>
<!-- conn16 -->
<g id="node12" class="node">
<title>conn16</title>
<polygon fill="none" stroke="#000000" points="614.5,-182 563.0544,-164 614.5,-146 665.9456,-164 614.5,-182"/>
<text text-anchor="middle" x="614.5" y="-160.3" font-family="Times,serif" font-size="14.00" fill="#000000">conn16</text>
</g>
<!-- am_gate_CASE_AttestationGate&#45;&gt;conn16 -->
<g id="edge24" class="edge">
<title>am_gate_CASE_AttestationGate&#45;&gt;conn16</title>
<path fill="none" stroke="#000000" d="M390.619,-218.9588C435.5295,-208.7739 493.329,-195.4245 544.5,-182 553.8536,-179.5461 563.9465,-176.6646 573.5385,-173.9352"/>
<polygon fill="#000000" stroke="#000000" points="574.6333,-177.2629 583.3011,-171.1703 572.7258,-170.5278 574.6333,-177.2629"/>
</g>
<!-- conn2&#45;&gt;am_gate_CASE_AttestationGate -->
<g id="edge3" class="edge">
<title>conn2&#45;&gt;am_gate_CASE_AttestationGate</title>
<path fill="none" stroke="#000000" d="M396.3173,-297.9455C382.9843,-288.0138 363.6519,-273.6132 347.1267,-261.3036"/>
<polygon fill="#000000" stroke="#000000" points="348.8981,-258.2588 338.7877,-255.0918 344.7164,-263.8725 348.8981,-258.2588"/>
</g>
<!-- conn4&#45;&gt;am_gate_CASE_AttestationGate -->
<g id="edge6" class="edge">
<title>conn4&#45;&gt;am_gate_CASE_AttestationGate</title>
<path fill="none" stroke="#000000" d="M498.2327,-301.4831C468.3703,-291.0025 416.5888,-272.8293 375.5934,-258.4414"/>
<polygon fill="#000000" stroke="#000000" points="376.5533,-255.0691 365.9585,-255.06 374.2352,-261.6741 376.5533,-255.0691"/>
</g>
<!-- conn6&#45;&gt;am_gate_CASE_AttestationGate -->
<g id="edge9" class="edge">
<title>conn6&#45;&gt;am_gate_CASE_AttestationGate</title>
<path fill="none" stroke="#000000" d="M608.3049,-301.444C598.7753,-298.2421 587.6914,-294.7245 577.5,-292 527.3287,-278.5878 471.0548,-266.4392 423.4749,-256.9918"/>
<polygon fill="#000000" stroke="#000000" points="423.9473,-253.5176 413.4591,-255.0173 422.5933,-260.3854 423.9473,-253.5176"/>
</g>
<!-- conn8&#45;&gt;uxas_UxAS_thread -->
<g id="edge12" class="edge">
<title>conn8&#45;&gt;uxas_UxAS_thread</title>
<path fill="none" stroke="#000000" d="M242.3081,-151.9455C229.9063,-142.105 211.9751,-127.877 196.5568,-115.6429"/>
<polygon fill="#000000" stroke="#000000" points="198.3097,-112.5659 188.3007,-109.0918 193.9587,-118.0494 198.3097,-112.5659"/>
</g>
<!-- conn10&#45;&gt;uxas_UxAS_thread -->
<g id="edge15" class="edge">
<title>conn10&#45;&gt;uxas_UxAS_thread</title>
<path fill="none" stroke="#000000" d="M346.7018,-154.9021C316.7649,-144.3446 266.3891,-126.5793 226.3415,-112.4562"/>
<polygon fill="#000000" stroke="#000000" points="227.2582,-109.0682 216.6634,-109.0431 224.9301,-115.6698 227.2582,-109.0682"/>
</g>
<!-- conn12&#45;&gt;uxas_UxAS_thread -->
<g id="edge18" class="edge">
<title>conn12&#45;&gt;uxas_UxAS_thread</title>
<path fill="none" stroke="#000000" d="M466.3046,-155.4448C455.7965,-152.2789 443.6403,-148.7859 432.5,-146 380.3105,-132.949 321.8274,-120.6443 272.929,-110.9963"/>
<polygon fill="#000000" stroke="#000000" points="273.4512,-107.5321 262.9643,-109.0407 272.1031,-114.4011 273.4512,-107.5321"/>
</g>
<!-- conn14&#45;&gt;uxas_UxAS_thread -->
<g id="edge21" class="edge">
<title>conn14&#45;&gt;uxas_UxAS_thread</title>
<path fill="none" stroke="#000000" d="M171.2361,-34.3429C172.1828,-42.761 172.4665,-53.2631 172.0874,-62.9306"/>
<polygon fill="#000000" stroke="#000000" points="168.5921,-62.7434 171.4157,-72.9551 175.5765,-63.2114 168.5921,-62.7434"/>
</g>
<!-- conn15&#45;&gt;radio_RadioDriver -->
<g id="edge23" class="edge">
<title>conn15&#45;&gt;radio_RadioDriver</title>
<path fill="none" stroke="#000000" d="M724.5269,-320.0892C715.7775,-322.8333 705.7858,-325.684 696.5,-328 643.2428,-341.2831 583.5619,-353.5331 532.6743,-363.084"/>
<polygon fill="#000000" stroke="#000000" points="531.8081,-359.685 522.6185,-364.9577 533.0904,-366.5666 531.8081,-359.685"/>
</g>
<!-- conn16&#45;&gt;am_gate_CASE_AttestationGate -->
<g id="edge25" class="edge">
<title>conn16&#45;&gt;am_gate_CASE_AttestationGate</title>
<path fill="none" stroke="#000000" d="M590.946,-173.8958C582.0438,-176.6368 571.8987,-179.5343 562.5,-182 514.827,-194.5068 461.4008,-206.9484 416.3395,-216.8267"/>
<polygon fill="#000000" stroke="#000000" points="415.5859,-213.4087 406.561,-218.9588 417.0771,-220.248 415.5859,-213.4087"/>
</g>
</g>
</svg>
