<?xml version="1.0" encoding="UTF-8" standalone="no"?>
<!DOCTYPE svg PUBLIC "-//W3C//DTD SVG 1.1//EN"
 "http://www.w3.org/Graphics/SVG/1.1/DTD/svg11.dtd">
<!-- Generated by graphviz version 2.40.1 (20161225.0304)
 -->
<!-- Title: %3 Pages: 1 -->
<svg width="3257pt" height="1614pt"
 viewBox="0.00 0.00 3257.07 1613.55" xmlns="http://www.w3.org/2000/svg" xmlns:xlink="http://www.w3.org/1999/xlink">
<g id="graph0" class="graph" transform="scale(1 1) rotate(0) translate(4 1609.549)">
<title>%3</title>
<polygon fill="#ffffff" stroke="transparent" points="-4,4 -4,-1609.549 3253.0689,-1609.549 3253.0689,4 -4,4"/>
<!-- MCMP_PROC_SW_FC_UART_UARTDriver -->
<g id="node1" class="node">
<title>MCMP_PROC_SW_FC_UART_UARTDriver</title>
<path fill="none" stroke="#000000" d="M1376.0349,-1068.5548C1376.0349,-1068.5548 750.0349,-1068.5548 750.0349,-1068.5548 744.0349,-1068.5548 738.0349,-1062.5548 738.0349,-1056.5548 738.0349,-1056.5548 738.0349,-1044.5548 738.0349,-1044.5548 738.0349,-1038.5548 744.0349,-1032.5548 750.0349,-1032.5548 750.0349,-1032.5548 1376.0349,-1032.5548 1376.0349,-1032.5548 1382.0349,-1032.5548 1388.0349,-1038.5548 1388.0349,-1044.5548 1388.0349,-1044.5548 1388.0349,-1056.5548 1388.0349,-1056.5548 1388.0349,-1062.5548 1382.0349,-1068.5548 1376.0349,-1068.5548"/>
<text text-anchor="middle" x="1063.0349" y="-1046.8548" font-family="Times,serif" font-size="14.00" fill="#000000">MCMP_PROC_SW_FC_UART_UARTDriver::UARTDriver_Impl_MCMP_PROC_SW_FC_UART_UARTDriver</text>
</g>
<!-- vmUXAS -->
<g id="node7" class="node">
<title>vmUXAS</title>
<path fill="none" stroke="#000000" d="M2184.5349,-852.5548C2184.5349,-852.5548 1809.5349,-852.5548 1809.5349,-852.5548 1803.5349,-852.5548 1797.5349,-846.5548 1797.5349,-840.5548 1797.5349,-840.5548 1797.5349,-828.5548 1797.5349,-828.5548 1797.5349,-822.5548 1803.5349,-816.5548 1809.5349,-816.5548 1809.5349,-816.5548 2184.5349,-816.5548 2184.5349,-816.5548 2190.5349,-816.5548 2196.5349,-822.5548 2196.5349,-828.5548 2196.5349,-828.5548 2196.5349,-840.5548 2196.5349,-840.5548 2196.5349,-846.5548 2190.5349,-852.5548 2184.5349,-852.5548"/>
<text text-anchor="middle" x="1997.0349" y="-830.8548" font-family="Times,serif" font-size="14.00" fill="#000000">vmUXAS::VM_UxAS_thr_Impl_MCMP_PROC_SW_UXAS_UxAS</text>
</g>
<!-- MCMP_PROC_SW_FC_UART_UARTDriver&#45;&gt;vmUXAS -->
<g id="edge16" class="edge">
<title>MCMP_PROC_SW_FC_UART_UARTDriver&#45;&gt;vmUXAS</title>
<path fill="none" stroke="#000000" d="M1241.0025,-1031.1525C1274.6869,-1026.4745 1309.541,-1020.9442 1342.0349,-1014.5548 1433.6405,-996.5421 1466.3358,-1010.7793 1545.0349,-960.5548 1588.9267,-932.5437 1573.9866,-894.8585 1620.0349,-870.5548 1636.2234,-862.0107 1709.6681,-854.0877 1787.4918,-847.8624"/>
<polygon fill="none" stroke="#000000" points="1231.6074,-1036.476 1230.5223,-1028.5499 1238.4484,-1027.4648 1239.5335,-1035.3908 1231.6074,-1036.476"/>
<polyline fill="none" stroke="#000000" points="1238.9909,-1031.4278 1240.9725,-1031.1565 "/>
<polygon fill="none" stroke="#000000" points="1797.1826,-843.0854 1797.8119,-851.0606 1789.8367,-851.6899 1789.2074,-843.7146 1797.1826,-843.0854"/>
<polyline fill="none" stroke="#000000" points="1789.522,-847.7023 1787.5282,-847.8596 "/>
<text text-anchor="middle" x="1593.0349" y="-938.8548" font-family="Times,serif" font-size="14.00" fill="#000000">conn6</text>
</g>
<!-- MCMP_PROC_SW_WPM_WaypointPlanManagerService -->
<g id="node8" class="node">
<title>MCMP_PROC_SW_WPM_WaypointPlanManagerService</title>
<path fill="none" stroke="#000000" d="M1216.5349,-109C1216.5349,-109 335.5349,-109 335.5349,-109 329.5349,-109 323.5349,-103 323.5349,-97 323.5349,-97 323.5349,-85 323.5349,-85 323.5349,-79 329.5349,-73 335.5349,-73 335.5349,-73 1216.5349,-73 1216.5349,-73 1222.5349,-73 1228.5349,-79 1228.5349,-85 1228.5349,-85 1228.5349,-97 1228.5349,-97 1228.5349,-103 1222.5349,-109 1216.5349,-109"/>
<text text-anchor="middle" x="776.0349" y="-87.3" font-family="Times,serif" font-size="14.00" fill="#000000">MCMP_PROC_SW_WPM_WaypointPlanManagerService::WaypointPlanManagerService_thr_Impl_MCMP_PROC_SW_WPM_WaypointPlanManagerService</text>
</g>
<!-- MCMP_PROC_SW_FC_UART_UARTDriver&#45;&gt;MCMP_PROC_SW_WPM_WaypointPlanManagerService -->
<g id="edge13" class="edge">
<title>MCMP_PROC_SW_FC_UART_UARTDriver&#45;&gt;MCMP_PROC_SW_WPM_WaypointPlanManagerService</title>
<path fill="none" stroke="#000000" d="M1026.245,-1026.2514C1001.7477,-1006.8643 974.0349,-977.2624 974.0349,-942.5548 974.0349,-942.5548 974.0349,-942.5548 974.0349,-220.7434 974.0349,-176.7191 974.9081,-156.283 942.0349,-127 935.4246,-121.1117 922.7844,-116.0052 907.3062,-111.6377"/>
<polygon fill="none" stroke="#000000" points="1036.8026,-1029.2406 1031.9671,-1035.6138 1025.5938,-1030.7783 1030.4293,-1024.4051 1036.8026,-1029.2406"/>
<polyline fill="none" stroke="#000000" points="1028.0116,-1027.5917 1026.4182,-1026.3828 "/>
<polygon fill="none" stroke="#000000" points="896.3129,-112.8818 898.3483,-105.145 906.0851,-107.1804 904.0497,-114.9172 896.3129,-112.8818"/>
<polyline fill="none" stroke="#000000" points="905.0674,-111.0488 907.0016,-111.5576 "/>
<text text-anchor="middle" x="991.0349" y="-595.8208" font-family="Times,serif" font-size="14.00" fill="#000000">conn4</text>
</g>
<!-- conn3 -->
<g id="node20" class="node">
<title>conn3</title>
<polygon fill="none" stroke="#000000" points="1108.0349,-906.5548 1062.1191,-888.5548 1108.0349,-870.5548 1153.9507,-888.5548 1108.0349,-906.5548"/>
<text text-anchor="middle" x="1108.0349" y="-884.8548" font-family="Times,serif" font-size="14.00" fill="#000000">conn3</text>
</g>
<!-- MCMP_PROC_SW_FC_UART_UARTDriver&#45;&gt;conn3 -->
<g id="edge11" class="edge">
<title>MCMP_PROC_SW_FC_UART_UARTDriver&#45;&gt;conn3</title>
<path fill="none" stroke="#000000" d="M1068.1095,-1032.2862C1076.074,-1003.614 1091.5443,-947.9209 1100.7134,-914.912"/>
<polygon fill="#000000" stroke="#000000" points="1104.1473,-915.6269 1103.4515,-905.0549 1097.4027,-913.7534 1104.1473,-915.6269"/>
</g>
<!-- conn5 -->
<g id="node21" class="node">
<title>conn5</title>
<polygon fill="none" stroke="#000000" points="1490.0349,-960.5548 1444.1191,-942.5548 1490.0349,-924.5548 1535.9507,-942.5548 1490.0349,-960.5548"/>
<text text-anchor="middle" x="1490.0349" y="-938.8548" font-family="Times,serif" font-size="14.00" fill="#000000">conn5</text>
</g>
<!-- MCMP_PROC_SW_FC_UART_UARTDriver&#45;&gt;conn5 -->
<g id="edge14" class="edge">
<title>MCMP_PROC_SW_FC_UART_UARTDriver&#45;&gt;conn5</title>
<path fill="none" stroke="#000000" d="M1184.0534,-1032.5232C1212.4263,-1027.4646 1242.4273,-1021.435 1270.0349,-1014.5548 1337.5438,-997.7307 1414.3567,-970.7343 1457.0167,-955.0177"/>
<polygon fill="#000000" stroke="#000000" points="1458.4361,-958.2243 1466.5958,-951.4663 1456.0027,-951.6609 1458.4361,-958.2243"/>
</g>
<!-- vmRADIO -->
<g id="node2" class="node">
<title>vmRADIO</title>
<path fill="none" stroke="#000000" d="M2503.5349,-1424.549C2503.5349,-1424.549 1916.5349,-1424.549 1916.5349,-1424.549 1910.5349,-1424.549 1904.5349,-1418.549 1904.5349,-1412.549 1904.5349,-1412.549 1904.5349,-1400.549 1904.5349,-1400.549 1904.5349,-1394.549 1910.5349,-1388.549 1916.5349,-1388.549 1916.5349,-1388.549 2503.5349,-1388.549 2503.5349,-1388.549 2509.5349,-1388.549 2515.5349,-1394.549 2515.5349,-1400.549 2515.5349,-1400.549 2515.5349,-1412.549 2515.5349,-1412.549 2515.5349,-1418.549 2509.5349,-1424.549 2503.5349,-1424.549"/>
<text text-anchor="middle" x="2210.0349" y="-1402.849" font-family="Times,serif" font-size="14.00" fill="#000000">vmRADIO::VM_RadioDriver_Attestation_thr_Impl_MCMP_PROC_SW_RADIO_RadioDriver_Attestation</text>
</g>
<!-- MCMP_PROC_SW_AM_Gate_CASE_AttestationGate -->
<g id="node9" class="node">
<title>MCMP_PROC_SW_AM_Gate_CASE_AttestationGate</title>
<path fill="none" stroke="#000000" d="M2639.0349,-1249.5548C2639.0349,-1249.5548 1839.0349,-1249.5548 1839.0349,-1249.5548 1833.0349,-1249.5548 1827.0349,-1243.5548 1827.0349,-1237.5548 1827.0349,-1237.5548 1827.0349,-1225.5548 1827.0349,-1225.5548 1827.0349,-1219.5548 1833.0349,-1213.5548 1839.0349,-1213.5548 1839.0349,-1213.5548 2639.0349,-1213.5548 2639.0349,-1213.5548 2645.0349,-1213.5548 2651.0349,-1219.5548 2651.0349,-1225.5548 2651.0349,-1225.5548 2651.0349,-1237.5548 2651.0349,-1237.5548 2651.0349,-1243.5548 2645.0349,-1249.5548 2639.0349,-1249.5548"/>
<text text-anchor="middle" x="2239.0349" y="-1227.8548" font-family="Times,serif" font-size="14.00" fill="#000000">MCMP_PROC_SW_AM_Gate_CASE_AttestationGate::CASE_AttestationGate_thr_Impl_MCMP_PROC_SW_AM_Gate_CASE_AttestationGate</text>
</g>
<!-- vmRADIO&#45;&gt;MCMP_PROC_SW_AM_Gate_CASE_AttestationGate -->
<g id="edge19" class="edge">
<title>vmRADIO&#45;&gt;MCMP_PROC_SW_AM_Gate_CASE_AttestationGate</title>
<path fill="none" stroke="#000000" d="M2466.8838,-1387.2878C2504.1465,-1382.6356 2536.2352,-1377.0782 2555.0349,-1370.549 2569.9438,-1365.3711 2577.4253,-1365.3758 2585.0349,-1351.549 2598.9626,-1326.2421 2598.9626,-1311.8617 2585.0349,-1286.5548 2577.4253,-1272.728 2569.9191,-1272.8032 2555.0349,-1267.5548 2536.9475,-1261.1769 2505.4071,-1255.6095 2469.0469,-1250.8824"/>
<polygon fill="none" stroke="#000000" points="2457.2575,-1392.4843 2456.2945,-1384.5425 2464.2364,-1383.5795 2465.1994,-1391.5213 2457.2575,-1392.4843"/>
<polyline fill="none" stroke="#000000" points="2464.7179,-1387.5504 2466.7033,-1387.3096 "/>
<polygon fill="none" stroke="#000000" points="2458.1694,-1253.5398 2459.1723,-1245.6029 2467.1092,-1246.6058 2466.1063,-1254.5427 2458.1694,-1253.5398"/>
<polyline fill="none" stroke="#000000" points="2466.6078,-1250.5743 2468.592,-1250.825 "/>
<text text-anchor="middle" x="2612.0349" y="-1315.3519" font-family="Times,serif" font-size="14.00" fill="#000000">conn8</text>
</g>
<!-- vmRADIO&#45;&gt;MCMP_PROC_SW_AM_Gate_CASE_AttestationGate -->
<g id="edge22" class="edge">
<title>vmRADIO&#45;&gt;MCMP_PROC_SW_AM_Gate_CASE_AttestationGate</title>
<path fill="none" stroke="#000000" d="M2354.1265,-1386.4213C2392.287,-1378.0016 2426.191,-1366.5897 2438.0349,-1351.549 2455.9059,-1328.8544 2455.5297,-1309.5407 2438.0349,-1286.5548 2427.0995,-1272.1871 2393.9508,-1260.6098 2357.7663,-1251.8519"/>
<polygon fill="none" stroke="#000000" points="2345.1744,-1392.4106 2343.5132,-1384.585 2351.3389,-1382.9238 2353,-1390.7494 2345.1744,-1392.4106"/>
<polyline fill="none" stroke="#000000" points="2352.1694,-1386.8366 2354.1258,-1386.4213 "/>
<polygon fill="none" stroke="#000000" points="2347.0966,-1253.4667 2348.9168,-1245.6765 2356.707,-1247.4967 2354.8868,-1255.2869 2347.0966,-1253.4667"/>
<polyline fill="none" stroke="#000000" points="2355.7969,-1251.3918 2357.7444,-1251.8469 "/>
<text text-anchor="middle" x="2471.0349" y="-1315.3519" font-family="Times,serif" font-size="14.00" fill="#000000">conn10</text>
</g>
<!-- vmRADIO&#45;&gt;MCMP_PROC_SW_AM_Gate_CASE_AttestationGate -->
<g id="edge25" class="edge">
<title>vmRADIO&#45;&gt;MCMP_PROC_SW_AM_Gate_CASE_AttestationGate</title>
<path fill="none" stroke="#000000" d="M1894.0755,-1398.8925C1738.6873,-1391.7693 1579.3867,-1378.0313 1555.0349,-1351.549 1535.4824,-1330.2859 1535.4448,-1307.7833 1555.0349,-1286.5548 1567.2641,-1273.3027 1720.9632,-1260.2817 1879.5618,-1250.2382"/>
<polygon fill="none" stroke="#000000" points="1904.4832,-1395.3563 1904.1239,-1403.3482 1896.1319,-1402.9889 1896.4912,-1394.997 1904.4832,-1395.3563"/>
<polyline fill="none" stroke="#000000" points="1896.3116,-1398.993 1894.3136,-1398.9032 "/>
<polygon fill="none" stroke="#000000" points="1889.763,-1245.5888 1890.2651,-1253.5731 1882.2808,-1254.0752 1881.7787,-1246.0909 1889.763,-1245.5888"/>
<polyline fill="none" stroke="#000000" points="1882.0298,-1250.083 1880.0337,-1250.2086 "/>
<text text-anchor="middle" x="1575.0349" y="-1315.3519" font-family="Times,serif" font-size="14.00" fill="#000000">conn12</text>
</g>
<!-- vmRADIO&#45;&gt;MCMP_PROC_SW_AM_Gate_CASE_AttestationGate -->
<g id="edge28" class="edge">
<title>vmRADIO&#45;&gt;MCMP_PROC_SW_AM_Gate_CASE_AttestationGate</title>
<path fill="none" stroke="#000000" d="M2414.0183,-1386.4155C2451.6933,-1378.3792 2483.0019,-1367.1693 2495.0349,-1351.549 2512.6632,-1328.6653 2512.6632,-1309.4385 2495.0349,-1286.5548 2483.1108,-1271.0759 2450.3279,-1259.7907 2412.0396,-1251.6282"/>
<polygon fill="none" stroke="#000000" points="2404.5707,-1392.4148 2402.9792,-1384.5747 2410.8193,-1382.9832 2412.4108,-1390.8233 2404.5707,-1392.4148"/>
<polyline fill="none" stroke="#000000" points="2411.615,-1386.9032 2413.5751,-1386.5054 "/>
<polygon fill="none" stroke="#000000" points="2401.3963,-1253.5388 2402.9958,-1245.7004 2410.8343,-1247.2999 2409.2347,-1255.1384 2401.3963,-1253.5388"/>
<polyline fill="none" stroke="#000000" points="2410.0345,-1251.2191 2411.9941,-1251.619 "/>
<text text-anchor="middle" x="2528.0349" y="-1315.3519" font-family="Times,serif" font-size="14.00" fill="#000000">conn14</text>
</g>
<!-- conn1 -->
<g id="node15" class="node">
<title>conn1</title>
<ellipse fill="none" stroke="#000000" cx="1757.0349" cy="-1319.0519" rx="32.4942" ry="32.4942"/>
<text text-anchor="middle" x="1757.0349" y="-1315.3519" font-family="Times,serif" font-size="14.00" fill="#000000">conn1</text>
</g>
<!-- vmRADIO&#45;&gt;conn1 -->
<g id="edge1" class="edge">
<title>vmRADIO&#45;&gt;conn1</title>
<path fill="none" stroke="#000000" d="M1989.3413,-1388.5428C1907.5132,-1379.5061 1825.7345,-1367.1288 1789.0349,-1351.549 1787.8592,-1351.0499 1786.6889,-1350.5076 1785.5285,-1349.9283"/>
<polygon fill="#000000" stroke="#000000" points="1787.2967,-1346.9078 1776.9003,-1344.8669 1783.7549,-1352.9456 1787.2967,-1346.9078"/>
</g>
<!-- notify_ready_vmRADIO -->
<g id="node16" class="node">
<title>notify_ready_vmRADIO</title>
<polygon fill="none" stroke="#000000" points="1948.0349,-1337.0519 1807.2726,-1319.0519 1948.0349,-1301.0519 2088.7971,-1319.0519 1948.0349,-1337.0519"/>
<text text-anchor="middle" x="1948.0349" y="-1315.3519" font-family="Times,serif" font-size="14.00" fill="#000000">notify_ready_vmRADIO</text>
</g>
<!-- vmRADIO&#45;&gt;notify_ready_vmRADIO -->
<g id="edge3" class="edge">
<title>vmRADIO&#45;&gt;notify_ready_vmRADIO</title>
<path fill="none" stroke="#000000" d="M2150.4842,-1388.5257C2102.6498,-1373.0846 2036.5986,-1351.0124 1993.0746,-1335.9158"/>
<polygon fill="#000000" stroke="#000000" points="1994.1984,-1332.601 1983.6035,-1332.6161 1991.8953,-1339.2113 1994.1984,-1332.601"/>
</g>
<!-- conn7 -->
<g id="node22" class="node">
<title>conn7</title>
<polygon fill="none" stroke="#000000" points="2383.0349,-1337.0519 2337.1191,-1319.0519 2383.0349,-1301.0519 2428.9507,-1319.0519 2383.0349,-1337.0519"/>
<text text-anchor="middle" x="2383.0349" y="-1315.3519" font-family="Times,serif" font-size="14.00" fill="#000000">conn7</text>
</g>
<!-- vmRADIO&#45;&gt;conn7 -->
<g id="edge17" class="edge">
<title>vmRADIO&#45;&gt;conn7</title>
<path fill="none" stroke="#000000" d="M2251.473,-1388.428C2274.3201,-1378.1402 2303.0393,-1364.7186 2328.0349,-1351.549 2337.3565,-1346.6377 2347.3338,-1340.8963 2356.1965,-1335.6172"/>
<polygon fill="#000000" stroke="#000000" points="2358.1975,-1338.4978 2364.9546,-1330.3374 2354.5834,-1332.5029 2358.1975,-1338.4978"/>
</g>
<!-- conn9 -->
<g id="node23" class="node">
<title>conn9</title>
<polygon fill="none" stroke="#000000" points="2153.0349,-1337.0519 2107.1191,-1319.0519 2153.0349,-1301.0519 2198.9507,-1319.0519 2153.0349,-1337.0519"/>
<text text-anchor="middle" x="2153.0349" y="-1315.3519" font-family="Times,serif" font-size="14.00" fill="#000000">conn9</text>
</g>
<!-- vmRADIO&#45;&gt;conn9 -->
<g id="edge20" class="edge">
<title>vmRADIO&#45;&gt;conn9</title>
<path fill="none" stroke="#000000" d="M2198.2244,-1388.4196C2189.4211,-1374.9061 2177.3376,-1356.3574 2167.8805,-1341.8405"/>
<polygon fill="#000000" stroke="#000000" points="2170.7755,-1339.8723 2162.3844,-1333.4038 2164.9103,-1343.6932 2170.7755,-1339.8723"/>
</g>
<!-- conn11 -->
<g id="node24" class="node">
<title>conn11</title>
<polygon fill="none" stroke="#000000" points="1655.0349,-1337.0519 1603.5893,-1319.0519 1655.0349,-1301.0519 1706.4805,-1319.0519 1655.0349,-1337.0519"/>
<text text-anchor="middle" x="1655.0349" y="-1315.3519" font-family="Times,serif" font-size="14.00" fill="#000000">conn11</text>
</g>
<!-- vmRADIO&#45;&gt;conn11 -->
<g id="edge23" class="edge">
<title>vmRADIO&#45;&gt;conn11</title>
<path fill="none" stroke="#000000" d="M1967.9023,-1388.5278C1867.3453,-1379.1934 1763.2072,-1366.5862 1716.0349,-1351.549 1704.3058,-1347.8101 1692.1808,-1341.8488 1681.8609,-1336.0468"/>
<polygon fill="#000000" stroke="#000000" points="1683.3522,-1332.8641 1672.9541,-1330.8316 1679.8151,-1338.9048 1683.3522,-1332.8641"/>
</g>
<!-- conn13 -->
<g id="node25" class="node">
<title>conn13</title>
<polygon fill="none" stroke="#000000" points="2268.0349,-1337.0519 2216.5893,-1319.0519 2268.0349,-1301.0519 2319.4805,-1319.0519 2268.0349,-1337.0519"/>
<text text-anchor="middle" x="2268.0349" y="-1315.3519" font-family="Times,serif" font-size="14.00" fill="#000000">conn13</text>
</g>
<!-- vmRADIO&#45;&gt;conn13 -->
<g id="edge26" class="edge">
<title>vmRADIO&#45;&gt;conn13</title>
<path fill="none" stroke="#000000" d="M2222.0525,-1388.4196C2230.9553,-1374.989 2243.1551,-1356.5848 2252.7514,-1342.1082"/>
<polygon fill="#000000" stroke="#000000" points="2255.7293,-1343.9504 2258.3372,-1333.6816 2249.8948,-1340.0828 2255.7293,-1343.9504"/>
</g>
<!-- fsvmRADIO.fsvmUXAS -->
<g id="node41" class="node">
<title>fsvmRADIO.fsvmUXAS</title>
<ellipse fill="none" stroke="#000000" cx="2482.0349" cy="-599.5208" rx="100.9827" ry="100.9827"/>
<text text-anchor="middle" x="2482.0349" y="-595.8208" font-family="Times,serif" font-size="14.00" fill="#000000">fsvmRADIO.fsvmUXAS</text>
</g>
<!-- vmRADIO&#45;&gt;fsvmRADIO.fsvmUXAS -->
<g id="edge73" class="edge">
<title>vmRADIO&#45;&gt;fsvmRADIO.fsvmUXAS</title>
<path fill="none" stroke="#000000" d="M2454.4933,-1388.539C2493.3309,-1383.8305 2532.9176,-1377.9298 2570.0349,-1370.549 2622.585,-1360.0994 2679.0349,-1372.6309 2679.0349,-1319.0519 2679.0349,-1319.0519 2679.0349,-1319.0519 2679.0349,-834.5548 2679.0349,-788.8094 2624.1336,-812.1479 2592.0349,-779.5548 2568.8594,-756.0224 2548.3627,-726.7312 2531.5331,-698.6577"/>
<polygon fill="#000000" stroke="#000000" points="2534.5199,-696.8322 2526.4289,-689.9921 2528.4884,-700.3849 2534.5199,-696.8322"/>
</g>
<!-- serial_vmRADIO.serial_vmUXAS -->
<g id="node42" class="node">
<title>serial_vmRADIO.serial_vmUXAS</title>
<ellipse fill="none" stroke="#000000" cx="2736.0349" cy="-599.5208" rx="135.3763" ry="135.3763"/>
<text text-anchor="middle" x="2736.0349" y="-595.8208" font-family="Times,serif" font-size="14.00" fill="#000000">serial_vmRADIO.serial_vmUXAS</text>
</g>
<!-- vmRADIO&#45;&gt;serial_vmRADIO.serial_vmUXAS -->
<g id="edge76" class="edge">
<title>vmRADIO&#45;&gt;serial_vmRADIO.serial_vmUXAS</title>
<path fill="none" stroke="#000000" d="M2432.0091,-1388.5157C2482.4186,-1383.5108 2535.6522,-1377.5049 2585.0349,-1370.549 2652.3399,-1361.0687 2729.0349,-1387.0213 2729.0349,-1319.0519 2729.0349,-1319.0519 2729.0349,-1319.0519 2729.0349,-834.5548 2729.0349,-805.4886 2729.5764,-774.4095 2730.3582,-744.6855"/>
<polygon fill="#000000" stroke="#000000" points="2733.8575,-744.7539 2730.6321,-734.662 2726.8601,-744.5627 2733.8575,-744.7539"/>
</g>
<!-- serial_input_vmRADIO.serial_input_vmUXAS -->
<g id="node43" class="node">
<title>serial_input_vmRADIO.serial_input_vmUXAS</title>
<ellipse fill="none" stroke="#000000" cx="3069.0349" cy="-599.5208" rx="180.0681" ry="180.0681"/>
<text text-anchor="middle" x="3069.0349" y="-595.8208" font-family="Times,serif" font-size="14.00" fill="#000000">serial_input_vmRADIO.serial_input_vmUXAS</text>
</g>
<!-- vmRADIO&#45;&gt;serial_input_vmRADIO.serial_input_vmUXAS -->
<g id="edge79" class="edge">
<title>vmRADIO&#45;&gt;serial_input_vmRADIO.serial_input_vmUXAS</title>
<path fill="none" stroke="#000000" d="M2427.4707,-1388.5277C2484.6396,-1383.2707 2546.2067,-1377.1469 2603.0349,-1370.549 2678.923,-1361.7382 2767.0349,-1395.4498 2767.0349,-1319.0519 2767.0349,-1319.0519 2767.0349,-1319.0519 2767.0349,-834.5548 2767.0349,-778.6996 2834.1588,-811.4167 2880.0349,-779.5548 2899.0056,-766.3792 2917.9142,-751.3136 2936.0334,-735.6328"/>
<polygon fill="#000000" stroke="#000000" points="2938.5298,-738.0991 2943.7483,-728.8786 2933.9188,-732.8323 2938.5298,-738.0991"/>
</g>
<!-- fserv -->
<g id="node3" class="node">
<title>fserv</title>
<path fill="none" stroke="#000000" d="M2518.5349,-368.4867C2518.5349,-368.4867 2435.5349,-368.4867 2435.5349,-368.4867 2429.5349,-368.4867 2423.5349,-362.4867 2423.5349,-356.4867 2423.5349,-356.4867 2423.5349,-344.4867 2423.5349,-344.4867 2423.5349,-338.4867 2429.5349,-332.4867 2435.5349,-332.4867 2435.5349,-332.4867 2518.5349,-332.4867 2518.5349,-332.4867 2524.5349,-332.4867 2530.5349,-338.4867 2530.5349,-344.4867 2530.5349,-344.4867 2530.5349,-356.4867 2530.5349,-356.4867 2530.5349,-362.4867 2524.5349,-368.4867 2518.5349,-368.4867"/>
<text text-anchor="middle" x="2477.0349" y="-346.7867" font-family="Times,serif" font-size="14.00" fill="#000000">fserv::FileServer</text>
</g>
<!-- serial -->
<g id="node4" class="node">
<title>serial</title>
<path fill="none" stroke="#000000" d="M3117.0349,-368.4867C3117.0349,-368.4867 3021.0349,-368.4867 3021.0349,-368.4867 3015.0349,-368.4867 3009.0349,-362.4867 3009.0349,-356.4867 3009.0349,-356.4867 3009.0349,-344.4867 3009.0349,-344.4867 3009.0349,-338.4867 3015.0349,-332.4867 3021.0349,-332.4867 3021.0349,-332.4867 3117.0349,-332.4867 3117.0349,-332.4867 3123.0349,-332.4867 3129.0349,-338.4867 3129.0349,-344.4867 3129.0349,-344.4867 3129.0349,-356.4867 3129.0349,-356.4867 3129.0349,-362.4867 3123.0349,-368.4867 3117.0349,-368.4867"/>
<text text-anchor="middle" x="3069.0349" y="-346.7867" font-family="Times,serif" font-size="14.00" fill="#000000">serial::SerialServer</text>
</g>
<!-- serialserver_timer -->
<g id="node17" class="node">
<title>serialserver_timer</title>
<ellipse fill="none" stroke="#000000" cx="2876.0349" cy="-220.7434" rx="74.9875" ry="74.9875"/>
<text text-anchor="middle" x="2876.0349" y="-217.0434" font-family="Times,serif" font-size="14.00" fill="#000000">serialserver_timer</text>
</g>
<!-- serial&#45;&gt;serialserver_timer -->
<g id="edge5" class="edge">
<title>serial&#45;&gt;serialserver_timer</title>
<path fill="none" stroke="#000000" d="M3026.9783,-332.4006C3006.1216,-322.6613 2980.9797,-309.7309 2960.0349,-295.4867 2952.8418,-290.5949 2945.6076,-285.1413 2938.5647,-279.4697"/>
<polygon fill="#000000" stroke="#000000" points="2940.3396,-276.3966 2930.3986,-272.7323 2935.8847,-281.7961 2940.3396,-276.3966"/>
</g>
<!-- serial.serial_conn -->
<g id="node39" class="node">
<title>serial.serial_conn</title>
<polygon fill="none" stroke="#000000" points="3072.0349,-238.7434 2969.1436,-220.7434 3072.0349,-202.7434 3174.9261,-220.7434 3072.0349,-238.7434"/>
<text text-anchor="middle" x="3072.0349" y="-217.0434" font-family="Times,serif" font-size="14.00" fill="#000000">serial.serial_conn</text>
</g>
<!-- serial&#45;&gt;serial.serial_conn -->
<g id="edge69" class="edge">
<title>serial&#45;&gt;serial.serial_conn</title>
<path fill="none" stroke="#000000" d="M3064.6071,-332.4465C3062.8717,-310.6353 3063.4609,-273.7003 3065.7578,-248.3119"/>
<polygon fill="#000000" stroke="#000000" points="3069.2542,-248.5331 3066.845,-238.2159 3062.2944,-247.7836 3069.2542,-248.5331"/>
</g>
<!-- time_server -->
<g id="node5" class="node">
<title>time_server</title>
<path fill="none" stroke="#000000" d="M2824.5349,-109C2824.5349,-109 2695.5349,-109 2695.5349,-109 2689.5349,-109 2683.5349,-103 2683.5349,-97 2683.5349,-97 2683.5349,-85 2683.5349,-85 2683.5349,-79 2689.5349,-73 2695.5349,-73 2695.5349,-73 2824.5349,-73 2824.5349,-73 2830.5349,-73 2836.5349,-79 2836.5349,-85 2836.5349,-85 2836.5349,-97 2836.5349,-97 2836.5349,-103 2830.5349,-109 2824.5349,-109"/>
<text text-anchor="middle" x="2760.0349" y="-87.3" font-family="Times,serif" font-size="14.00" fill="#000000">time_server::TimeServer</text>
</g>
<!-- MCMP_PROC_SW_FlyZones_FlyZonesDatabase -->
<g id="node6" class="node">
<title>MCMP_PROC_SW_FlyZones_FlyZonesDatabase</title>
<path fill="none" stroke="#000000" d="M768.0349,-617.5208C768.0349,-617.5208 52.0349,-617.5208 52.0349,-617.5208 46.0349,-617.5208 40.0349,-611.5208 40.0349,-605.5208 40.0349,-605.5208 40.0349,-593.5208 40.0349,-593.5208 40.0349,-587.5208 46.0349,-581.5208 52.0349,-581.5208 52.0349,-581.5208 768.0349,-581.5208 768.0349,-581.5208 774.0349,-581.5208 780.0349,-587.5208 780.0349,-593.5208 780.0349,-593.5208 780.0349,-605.5208 780.0349,-605.5208 780.0349,-611.5208 774.0349,-617.5208 768.0349,-617.5208"/>
<text text-anchor="middle" x="410.0349" y="-595.8208" font-family="Times,serif" font-size="14.00" fill="#000000">MCMP_PROC_SW_FlyZones_FlyZonesDatabase::FlyZonesDatabase_thr_Impl_MCMP_PROC_SW_FlyZones_FlyZonesDatabase</text>
</g>
<!-- MCMP_PROC_SW_MON_GEO_CASE_Monitor_Geo -->
<g id="node12" class="node">
<title>MCMP_PROC_SW_MON_GEO_CASE_Monitor_Geo</title>
<path fill="none" stroke="#000000" d="M888.0349,-368.4867C888.0349,-368.4867 96.0349,-368.4867 96.0349,-368.4867 90.0349,-368.4867 84.0349,-362.4867 84.0349,-356.4867 84.0349,-356.4867 84.0349,-344.4867 84.0349,-344.4867 84.0349,-338.4867 90.0349,-332.4867 96.0349,-332.4867 96.0349,-332.4867 888.0349,-332.4867 888.0349,-332.4867 894.0349,-332.4867 900.0349,-338.4867 900.0349,-344.4867 900.0349,-344.4867 900.0349,-356.4867 900.0349,-356.4867 900.0349,-362.4867 894.0349,-368.4867 888.0349,-368.4867"/>
<text text-anchor="middle" x="492.0349" y="-346.7867" font-family="Times,serif" font-size="14.00" fill="#000000">MCMP_PROC_SW_MON_GEO_CASE_Monitor_Geo::CASE_Monitor_Geo_thr_Impl_MCMP_PROC_SW_MON_GEO_CASE_Monitor_Geo</text>
</g>
<!-- MCMP_PROC_SW_FlyZones_FlyZonesDatabase&#45;&gt;MCMP_PROC_SW_MON_GEO_CASE_Monitor_Geo -->
<g id="edge29" class="edge">
<title>MCMP_PROC_SW_FlyZones_FlyZonesDatabase&#45;&gt;MCMP_PROC_SW_MON_GEO_CASE_Monitor_Geo</title>
<path fill="none" stroke="#000000" d="M404.0584,-571.6011C396.3916,-528.1918 388.1149,-443.5805 425.0349,-386.4867 427.875,-382.0947 431.4402,-378.2 435.4381,-374.7538"/>
<polygon fill="none" stroke="#000000" points="409.8474,-580.719 401.9859,-582.2009 400.504,-574.3393 408.3655,-572.8574 409.8474,-580.719"/>
<polyline fill="none" stroke="#000000" points="404.4348,-573.5984 404.0643,-571.633 "/>
<polygon fill="none" stroke="#000000" points="441.1882,-365.4625 445.9775,-371.8706 439.5694,-376.6599 434.7801,-370.2518 441.1882,-365.4625"/>
<polyline fill="none" stroke="#000000" points="437.1748,-373.4559 435.5728,-374.6532 "/>
<text text-anchor="middle" x="445.0349" y="-390.2867" font-family="Times,serif" font-size="14.00" fill="#000000">conn15</text>
</g>
<!-- MCMP_PROC_SW_FlyZones_FlyZonesDatabase&#45;&gt;MCMP_PROC_SW_MON_GEO_CASE_Monitor_Geo -->
<g id="edge30" class="edge">
<title>MCMP_PROC_SW_FlyZones_FlyZonesDatabase&#45;&gt;MCMP_PROC_SW_MON_GEO_CASE_Monitor_Geo</title>
<path fill="none" stroke="#000000" d="M419.2966,-571.3929C435.1259,-523.3192 467.195,-425.9256 482.9219,-378.1629"/>
<polygon fill="none" stroke="#000000" points="419.8639,-582.4597 412.2652,-579.9577 414.7673,-572.359 422.366,-574.8611 419.8639,-582.4597"/>
<polyline fill="none" stroke="#000000" points="418.5666,-573.61 419.1921,-571.7103 "/>
<polygon fill="none" stroke="#000000" points="482.3076,-367.2387 489.9063,-369.7408 487.4042,-377.3395 479.8056,-374.8374 482.3076,-367.2387"/>
<polyline fill="none" stroke="#000000" points="483.6049,-376.0885 482.9794,-377.9881 "/>
<text text-anchor="middle" x="501.0349" y="-390.2867" font-family="Times,serif" font-size="14.00" fill="#000000">conn16</text>
</g>
<!-- MCMP_PROC_SW_MON_REQ_CASE_Monitor_Req -->
<g id="node11" class="node">
<title>MCMP_PROC_SW_MON_REQ_CASE_Monitor_Req</title>
<path fill="none" stroke="#000000" d="M2304.0349,-368.4867C2304.0349,-368.4867 1516.0349,-368.4867 1516.0349,-368.4867 1510.0349,-368.4867 1504.0349,-362.4867 1504.0349,-356.4867 1504.0349,-356.4867 1504.0349,-344.4867 1504.0349,-344.4867 1504.0349,-338.4867 1510.0349,-332.4867 1516.0349,-332.4867 1516.0349,-332.4867 2304.0349,-332.4867 2304.0349,-332.4867 2310.0349,-332.4867 2316.0349,-338.4867 2316.0349,-344.4867 2316.0349,-344.4867 2316.0349,-356.4867 2316.0349,-356.4867 2316.0349,-362.4867 2310.0349,-368.4867 2304.0349,-368.4867"/>
<text text-anchor="middle" x="1910.0349" y="-346.7867" font-family="Times,serif" font-size="14.00" fill="#000000">MCMP_PROC_SW_MON_REQ_CASE_Monitor_Req::CASE_Monitor_Req_thr_Impl_MCMP_PROC_SW_MON_REQ_CASE_Monitor_Req</text>
</g>
<!-- vmUXAS&#45;&gt;MCMP_PROC_SW_MON_REQ_CASE_Monitor_Req -->
<g id="edge36" class="edge">
<title>vmUXAS&#45;&gt;MCMP_PROC_SW_MON_REQ_CASE_Monitor_Req</title>
<path fill="none" stroke="#000000" d="M1997.5265,-806.0383C1998.5719,-724.1431 1998.896,-489.6292 1970.0349,-419.4867 1963.2317,-402.9527 1950.8016,-387.6119 1939.0124,-375.6145"/>
<polygon fill="none" stroke="#000000" points="2001.3835,-816.1741 1993.3843,-816.0608 1993.4976,-808.0616 2001.4968,-808.1749 2001.3835,-816.1741"/>
<polyline fill="none" stroke="#000000" points="1997.4972,-808.1182 1997.5255,-806.1184 "/>
<polygon fill="none" stroke="#000000" points="1929.0189,-371.4602 1934.6026,-365.7311 1940.3318,-371.3148 1934.7481,-377.0439 1929.0189,-371.4602"/>
<polyline fill="none" stroke="#000000" points="1937.5399,-374.1794 1938.9722,-375.5753 "/>
<text text-anchor="middle" x="2017.0349" y="-595.8208" font-family="Times,serif" font-size="14.00" fill="#000000">conn20</text>
</g>
<!-- vmUXAS&#45;&gt;MCMP_PROC_SW_MON_GEO_CASE_Monitor_Geo -->
<g id="edge33" class="edge">
<title>vmUXAS&#45;&gt;MCMP_PROC_SW_MON_GEO_CASE_Monitor_Geo</title>
<path fill="none" stroke="#000000" d="M1857.1376,-814.6556C1814.582,-806.328 1768.2008,-794.9111 1727.0349,-779.5548 1421.6095,-665.6205 1398.0603,-520.2336 1088.0349,-419.4867 1024.4301,-398.8175 874.6751,-381.5229 741.2005,-369.418"/>
<polygon fill="none" stroke="#000000" points="1867.7606,-812.6172 1866.2559,-820.4745 1858.3987,-818.9698 1859.9034,-811.1125 1867.7606,-812.6172"/>
<polyline fill="none" stroke="#000000" points="1859.1511,-815.0411 1857.1868,-814.665 "/>
<polygon fill="none" stroke="#000000" points="730.8535,-372.5029 731.5707,-364.5351 739.5385,-365.2523 738.8213,-373.2201 730.8535,-372.5029"/>
<polyline fill="none" stroke="#000000" points="739.1799,-369.2362 741.1718,-369.4155 "/>
<text text-anchor="middle" x="1747.0349" y="-595.8208" font-family="Times,serif" font-size="14.00" fill="#000000">conn18</text>
</g>
<!-- conn2 -->
<g id="node18" class="node">
<title>conn2</title>
<ellipse fill="none" stroke="#000000" cx="1808.0349" cy="-599.5208" rx="32.4942" ry="32.4942"/>
<text text-anchor="middle" x="1808.0349" y="-595.8208" font-family="Times,serif" font-size="14.00" fill="#000000">conn2</text>
</g>
<!-- vmUXAS&#45;&gt;conn2 -->
<g id="edge7" class="edge">
<title>vmUXAS&#45;&gt;conn2</title>
<path fill="none" stroke="#000000" d="M1898.1328,-816.4252C1876.6654,-808.2973 1855.9644,-796.5433 1841.0349,-779.5548 1807.4858,-741.379 1799.371,-681.5482 1800.1916,-641.4584"/>
<polygon fill="#000000" stroke="#000000" points="1803.699,-641.3491 1800.6139,-631.2134 1796.705,-641.0607 1803.699,-641.3491"/>
</g>
<!-- notify_ready_vmUXAS -->
<g id="node19" class="node">
<title>notify_ready_vmUXAS</title>
<polygon fill="none" stroke="#000000" points="2190.0349,-617.5208 2054.8026,-599.5208 2190.0349,-581.5208 2325.2672,-599.5208 2190.0349,-617.5208"/>
<text text-anchor="middle" x="2190.0349" y="-595.8208" font-family="Times,serif" font-size="14.00" fill="#000000">notify_ready_vmUXAS</text>
</g>
<!-- vmUXAS&#45;&gt;notify_ready_vmUXAS -->
<g id="edge9" class="edge">
<title>vmUXAS&#45;&gt;notify_ready_vmUXAS</title>
<path fill="none" stroke="#000000" d="M2008.0505,-816.5023C2038.8253,-774.4341 2124.5159,-669.9024 2166.5255,-622.9771"/>
<polygon fill="#000000" stroke="#000000" points="2169.2385,-625.1955 2173.3588,-615.4347 2164.0508,-620.4957 2169.2385,-625.1955"/>
</g>
<!-- conn17 -->
<g id="node26" class="node">
<title>conn17</title>
<polygon fill="none" stroke="#000000" points="849.0349,-617.5208 797.5893,-599.5208 849.0349,-581.5208 900.4805,-599.5208 849.0349,-617.5208"/>
<text text-anchor="middle" x="849.0349" y="-595.8208" font-family="Times,serif" font-size="14.00" fill="#000000">conn17</text>
</g>
<!-- vmUXAS&#45;&gt;conn17 -->
<g id="edge31" class="edge">
<title>vmUXAS&#45;&gt;conn17</title>
<path fill="none" stroke="#000000" d="M1797.4053,-828.9485C1504.0901,-820.0088 987.3512,-801.2978 952.0349,-779.5548 895.7588,-744.9076 867.2352,-667.4113 855.5953,-626.3087"/>
<polygon fill="#000000" stroke="#000000" points="858.92,-625.195 852.9322,-616.4545 852.1624,-627.0213 858.92,-625.195"/>
</g>
<!-- conn19 -->
<g id="node27" class="node">
<title>conn19</title>
<polygon fill="none" stroke="#000000" points="1910.0349,-617.5208 1858.5893,-599.5208 1910.0349,-581.5208 1961.4805,-599.5208 1910.0349,-617.5208"/>
<text text-anchor="middle" x="1910.0349" y="-595.8208" font-family="Times,serif" font-size="14.00" fill="#000000">conn19</text>
</g>
<!-- vmUXAS&#45;&gt;conn19 -->
<g id="edge34" class="edge">
<title>vmUXAS&#45;&gt;conn19</title>
<path fill="none" stroke="#000000" d="M1989.5451,-816.2825C1985.2151,-805.6084 1979.7151,-791.8584 1975.0349,-779.5548 1954.2809,-724.9958 1931.4044,-660.5447 1919.0899,-625.465"/>
<polygon fill="#000000" stroke="#000000" points="1922.3739,-624.253 1915.7641,-615.9729 1915.7677,-626.5678 1922.3739,-624.253"/>
</g>
<!-- vmUXAS&#45;&gt;fsvmRADIO.fsvmUXAS -->
<g id="edge74" class="edge">
<title>vmUXAS&#45;&gt;fsvmRADIO.fsvmUXAS</title>
<path fill="none" stroke="#000000" d="M2177.7908,-816.5502C2242.5714,-807.6937 2306.419,-795.4496 2334.0349,-779.5548 2369.7574,-758.994 2400.4848,-726.2898 2424.5362,-694.362"/>
<polygon fill="#000000" stroke="#000000" points="2427.3861,-696.3944 2430.506,-686.2693 2421.753,-692.2389 2427.3861,-696.3944"/>
</g>
<!-- vmUXAS&#45;&gt;serial_vmRADIO.serial_vmUXAS -->
<g id="edge77" class="edge">
<title>vmUXAS&#45;&gt;serial_vmRADIO.serial_vmUXAS</title>
<path fill="none" stroke="#000000" d="M2196.6293,-823.8343C2355.7452,-814.0051 2557.4728,-798.1749 2592.0349,-779.5548 2617.5658,-765.8001 2640.1801,-745.4092 2659.4835,-723.2406"/>
<polygon fill="#000000" stroke="#000000" points="2662.3864,-725.2283 2666.1727,-715.3331 2657.0421,-720.7074 2662.3864,-725.2283"/>
</g>
<!-- vmUXAS&#45;&gt;serial_input_vmRADIO.serial_input_vmUXAS -->
<g id="edge80" class="edge">
<title>vmUXAS&#45;&gt;serial_input_vmRADIO.serial_input_vmUXAS</title>
<path fill="none" stroke="#000000" d="M2196.7767,-825.5709C2447.6363,-813.7786 2849.2317,-793.0035 2880.0349,-779.5548 2902.0271,-769.9529 2923.008,-756.6201 2942.4549,-741.5107"/>
<polygon fill="#000000" stroke="#000000" points="2944.7694,-744.1417 2950.4042,-735.1695 2940.4041,-738.6695 2944.7694,-744.1417"/>
</g>
<!-- MCMP_PROC_SW_WPM_WaypointPlanManagerService&#45;&gt;MCMP_PROC_SW_FC_UART_UARTDriver -->
<g id="edge39" class="edge">
<title>MCMP_PROC_SW_WPM_WaypointPlanManagerService&#45;&gt;MCMP_PROC_SW_FC_UART_UARTDriver</title>
<path fill="none" stroke="#000000" d="M905.8586,-111.4684C922.9925,-115.7592 940.118,-120.8885 956.0349,-127 1009.3826,-147.4834 1044.0349,-163.5984 1044.0349,-220.7434 1044.0349,-942.5548 1044.0349,-942.5548 1044.0349,-942.5548 1044.0349,-970.0408 1050.078,-1000.8746 1055.3479,-1022.538"/>
<polygon fill="none" stroke="#000000" points="894.8409,-112.9264 896.7163,-105.1493 904.4934,-107.0246 902.6181,-114.8017 894.8409,-112.9264"/>
<polyline fill="none" stroke="#000000" points="903.5557,-110.9132 905.5,-111.382 "/>
<polygon fill="none" stroke="#000000" points="1061.7204,-1031.3984 1053.9657,-1033.3642 1051.9999,-1025.6094 1059.7547,-1023.6437 1061.7204,-1031.3984"/>
<polyline fill="none" stroke="#000000" points="1055.8773,-1024.6266 1055.3858,-1022.6879 "/>
<text text-anchor="middle" x="1064.0349" y="-595.8208" font-family="Times,serif" font-size="14.00" fill="#000000">conn22</text>
</g>
<!-- conn21 -->
<g id="node28" class="node">
<title>conn21</title>
<polygon fill="none" stroke="#000000" points="1016.0349,-36 964.5893,-18 1016.0349,0 1067.4805,-18 1016.0349,-36"/>
<text text-anchor="middle" x="1016.0349" y="-14.3" font-family="Times,serif" font-size="14.00" fill="#000000">conn21</text>
</g>
<!-- MCMP_PROC_SW_WPM_WaypointPlanManagerService&#45;&gt;conn21 -->
<g id="edge37" class="edge">
<title>MCMP_PROC_SW_WPM_WaypointPlanManagerService&#45;&gt;conn21</title>
<path fill="none" stroke="#000000" d="M835.3607,-72.9551C880.2138,-59.3122 940.414,-41.0013 978.7255,-29.3483"/>
<polygon fill="#000000" stroke="#000000" points="979.8966,-32.6505 988.4453,-26.3918 977.8595,-25.9534 979.8966,-32.6505"/>
</g>
<!-- MCMP_PROC_SW_AM_Gate_CASE_AttestationGate&#45;&gt;vmUXAS -->
<g id="edge42" class="edge">
<title>MCMP_PROC_SW_AM_Gate_CASE_AttestationGate&#45;&gt;vmUXAS</title>
<path fill="none" stroke="#000000" d="M2277.3683,-1207.1121C2281.3067,-1203.5619 2284.9769,-1199.6938 2288.0349,-1195.5548 2318.5212,-1154.2912 2296.6337,-1128.5984 2326.0349,-1086.5548 2333.2749,-1076.2016 2342.6248,-1079.9713 2348.0349,-1068.5548 2374.1159,-1013.5175 2394.4815,-941.7271 2318.0349,-870.5548 2308.2824,-861.4752 2261.5259,-854.1753 2206.5861,-848.5852"/>
<polygon fill="none" stroke="#000000" points="2272.0946,-1216.6254 2267.0144,-1210.4455 2273.1944,-1205.3653 2278.2746,-1211.5452 2272.0946,-1216.6254"/>
<polyline fill="none" stroke="#000000" points="2275.7345,-1208.4552 2277.2795,-1207.1852 "/>
<polygon fill="none" stroke="#000000" points="2196.2135,-851.5773 2197.0022,-843.6162 2204.9632,-844.4049 2204.1745,-852.366 2196.2135,-851.5773"/>
<polyline fill="none" stroke="#000000" points="2204.5688,-848.3854 2206.5591,-848.5826 "/>
<text text-anchor="middle" x="2382.0349" y="-1046.8548" font-family="Times,serif" font-size="14.00" fill="#000000">conn24</text>
</g>
<!-- MCMP_PROC_SW_AM_Gate_CASE_AttestationGate&#45;&gt;vmUXAS -->
<g id="edge48" class="edge">
<title>MCMP_PROC_SW_AM_Gate_CASE_AttestationGate&#45;&gt;vmUXAS</title>
<path fill="none" stroke="#000000" d="M2254.8358,-1204.5753C2275.8954,-1164.7806 2307.2984,-1088.9731 2278.0349,-1032.5548 2231.5174,-942.8718 2123.6433,-885.2163 2055.9021,-856.4476"/>
<polygon fill="none" stroke="#000000" points="2253.5179,-1215.3396 2246.4957,-1211.507 2250.3283,-1204.4848 2257.3505,-1208.3174 2253.5179,-1215.3396"/>
<polyline fill="none" stroke="#000000" points="2253.8394,-1206.4011 2254.7975,-1204.6455 "/>
<polygon fill="none" stroke="#000000" points="2045.0817,-856.2718 2048.1591,-848.8874 2055.5435,-851.9648 2052.4661,-859.3492 2045.0817,-856.2718"/>
<polyline fill="none" stroke="#000000" points="2054.0048,-855.657 2055.851,-856.4264 "/>
<text text-anchor="middle" x="2308.0349" y="-1046.8548" font-family="Times,serif" font-size="14.00" fill="#000000">conn28</text>
</g>
<!-- MCMP_PROC_SW_FLT_LST_CASE_Filter_LST -->
<g id="node10" class="node">
<title>MCMP_PROC_SW_FLT_LST_CASE_Filter_LST</title>
<path fill="none" stroke="#000000" d="M2256.5349,-1068.5548C2256.5349,-1068.5548 1531.5349,-1068.5548 1531.5349,-1068.5548 1525.5349,-1068.5548 1519.5349,-1062.5548 1519.5349,-1056.5548 1519.5349,-1056.5548 1519.5349,-1044.5548 1519.5349,-1044.5548 1519.5349,-1038.5548 1525.5349,-1032.5548 1531.5349,-1032.5548 1531.5349,-1032.5548 2256.5349,-1032.5548 2256.5349,-1032.5548 2262.5349,-1032.5548 2268.5349,-1038.5548 2268.5349,-1044.5548 2268.5349,-1044.5548 2268.5349,-1056.5548 2268.5349,-1056.5548 2268.5349,-1062.5548 2262.5349,-1068.5548 2256.5349,-1068.5548"/>
<text text-anchor="middle" x="1894.0349" y="-1046.8548" font-family="Times,serif" font-size="14.00" fill="#000000">MCMP_PROC_SW_FLT_LST_CASE_Filter_LST::CASE_Filter_LST_thr_Impl_MCMP_PROC_SW_FLT_LST_CASE_Filter_LST</text>
</g>
<!-- MCMP_PROC_SW_AM_Gate_CASE_AttestationGate&#45;&gt;MCMP_PROC_SW_FLT_LST_CASE_Filter_LST -->
<g id="edge51" class="edge">
<title>MCMP_PROC_SW_AM_Gate_CASE_AttestationGate&#45;&gt;MCMP_PROC_SW_FLT_LST_CASE_Filter_LST</title>
<path fill="none" stroke="#000000" d="M2195.7606,-1208.8515C2129.5315,-1174.1052 2003.751,-1108.116 1937.4422,-1073.3279"/>
<polygon fill="none" stroke="#000000" points="2206.552,-1209.996 2202.8353,-1217.0802 2195.7511,-1213.3635 2199.4678,-1206.2793 2206.552,-1209.996"/>
<polyline fill="none" stroke="#000000" points="2197.6094,-1209.8214 2195.8384,-1208.8922 "/>
<polygon fill="none" stroke="#000000" points="1926.6345,-1072.1749 1930.3512,-1065.0906 1937.4354,-1068.8073 1933.7187,-1075.8916 1926.6345,-1072.1749"/>
<polyline fill="none" stroke="#000000" points="1935.5771,-1072.3494 1937.3482,-1073.2786 "/>
<text text-anchor="middle" x="2153.0349" y="-1154.8548" font-family="Times,serif" font-size="14.00" fill="#000000">conn30</text>
</g>
<!-- MCMP_PROC_SW_AM_Gate_CASE_AttestationGate&#45;&gt;MCMP_PROC_SW_MON_REQ_CASE_Monitor_Req -->
<g id="edge45" class="edge">
<title>MCMP_PROC_SW_AM_Gate_CASE_AttestationGate&#45;&gt;MCMP_PROC_SW_MON_REQ_CASE_Monitor_Req</title>
<path fill="none" stroke="#000000" d="M2330.5866,-1211.0054C2409.6871,-1191.0928 2514.8457,-1158.6688 2538.0349,-1122.5548 2566.7525,-1077.831 2551.8939,-1063.5599 2488.0349,-924.5548 2476.1954,-898.7832 2471.146,-893.1724 2454.0349,-870.5548 2421.1882,-827.1377 2394.1987,-829.2812 2372.0349,-779.5548 2339.2793,-706.0647 2389.3081,-477.9555 2334.0349,-419.4867 2316.6614,-401.1088 2198.6662,-382.835 2091.5546,-369.7144"/>
<polygon fill="none" stroke="#000000" points="2321.5538,-1217.3729 2319.6236,-1209.6092 2327.3872,-1207.679 2329.3175,-1215.4427 2321.5538,-1217.3729"/>
<polyline fill="none" stroke="#000000" points="2328.3524,-1211.5608 2330.2933,-1211.0783 "/>
<polygon fill="none" stroke="#000000" points="2081.0761,-372.4716 2082.0403,-364.5299 2089.982,-365.4941 2089.0178,-373.4358 2081.0761,-372.4716"/>
<polyline fill="none" stroke="#000000" points="2089.4999,-369.465 2091.4853,-369.706 "/>
<text text-anchor="middle" x="2524.0349" y="-938.8548" font-family="Times,serif" font-size="14.00" fill="#000000">conn26</text>
</g>
<!-- conn23 -->
<g id="node29" class="node">
<title>conn23</title>
<polygon fill="none" stroke="#000000" points="2378.0349,-1122.5548 2326.5893,-1104.5548 2378.0349,-1086.5548 2429.4805,-1104.5548 2378.0349,-1122.5548"/>
<text text-anchor="middle" x="2378.0349" y="-1100.8548" font-family="Times,serif" font-size="14.00" fill="#000000">conn23</text>
</g>
<!-- MCMP_PROC_SW_AM_Gate_CASE_AttestationGate&#45;&gt;conn23 -->
<g id="edge40" class="edge">
<title>MCMP_PROC_SW_AM_Gate_CASE_AttestationGate&#45;&gt;conn23</title>
<path fill="none" stroke="#000000" d="M2297.8365,-1213.4971C2307.9393,-1208.708 2317.8156,-1202.7928 2326.0349,-1195.5548 2346.1283,-1177.8604 2360.3023,-1150.4438 2368.7233,-1130.3264"/>
<polygon fill="#000000" stroke="#000000" points="2372.054,-1131.4226 2372.4997,-1120.8371 2365.5501,-1128.8342 2372.054,-1131.4226"/>
</g>
<!-- conn25 -->
<g id="node30" class="node">
<title>conn25</title>
<polygon fill="none" stroke="#000000" points="1668.0349,-1014.5548 1616.5893,-996.5548 1668.0349,-978.5548 1719.4805,-996.5548 1668.0349,-1014.5548"/>
<text text-anchor="middle" x="1668.0349" y="-992.8548" font-family="Times,serif" font-size="14.00" fill="#000000">conn25</text>
</g>
<!-- MCMP_PROC_SW_AM_Gate_CASE_AttestationGate&#45;&gt;conn25 -->
<g id="edge43" class="edge">
<title>MCMP_PROC_SW_AM_Gate_CASE_AttestationGate&#45;&gt;conn25</title>
<path fill="none" stroke="#000000" d="M2025.3491,-1213.535C1833.6201,-1192.3271 1573.125,-1149.2698 1511.0349,-1068.5548 1501.2793,-1055.8729 1500.7511,-1044.8122 1511.0349,-1032.5548 1525.8286,-1014.9218 1590.708,-1020.1484 1613.0349,-1014.5548 1619.4305,-1012.9525 1626.1615,-1010.9888 1632.6355,-1008.9543"/>
<polygon fill="#000000" stroke="#000000" points="1634.0859,-1012.1631 1642.5123,-1005.7408 1631.9201,-1005.5066 1634.0859,-1012.1631"/>
</g>
<!-- conn27 -->
<g id="node31" class="node">
<title>conn27</title>
<polygon fill="none" stroke="#000000" points="2486.0349,-1122.5548 2434.5893,-1104.5548 2486.0349,-1086.5548 2537.4805,-1104.5548 2486.0349,-1122.5548"/>
<text text-anchor="middle" x="2486.0349" y="-1100.8548" font-family="Times,serif" font-size="14.00" fill="#000000">conn27</text>
</g>
<!-- MCMP_PROC_SW_AM_Gate_CASE_AttestationGate&#45;&gt;conn27 -->
<g id="edge46" class="edge">
<title>MCMP_PROC_SW_AM_Gate_CASE_AttestationGate&#45;&gt;conn27</title>
<path fill="none" stroke="#000000" d="M2296.5351,-1213.469C2310.9867,-1208.2718 2326.2892,-1202.1927 2340.0349,-1195.5548 2384.4476,-1174.1075 2432.311,-1142.4663 2460.6947,-1122.7057"/>
<polygon fill="#000000" stroke="#000000" points="2463.0243,-1125.3466 2469.1967,-1116.7353 2459.0015,-1119.618 2463.0243,-1125.3466"/>
</g>
<!-- conn29 -->
<g id="node32" class="node">
<title>conn29</title>
<polygon fill="none" stroke="#000000" points="1978.0349,-1176.5548 1926.5893,-1158.5548 1978.0349,-1140.5548 2029.4805,-1158.5548 1978.0349,-1176.5548"/>
<text text-anchor="middle" x="1978.0349" y="-1154.8548" font-family="Times,serif" font-size="14.00" fill="#000000">conn29</text>
</g>
<!-- MCMP_PROC_SW_AM_Gate_CASE_AttestationGate&#45;&gt;conn29 -->
<g id="edge49" class="edge">
<title>MCMP_PROC_SW_AM_Gate_CASE_AttestationGate&#45;&gt;conn29</title>
<path fill="none" stroke="#000000" d="M2174.518,-1213.5098C2124.8711,-1199.6239 2057.9341,-1180.9021 2016.4045,-1169.2865"/>
<polygon fill="#000000" stroke="#000000" points="2017.2472,-1165.8879 2006.674,-1166.565 2015.3616,-1172.6292 2017.2472,-1165.8879"/>
</g>
<!-- MCMP_PROC_SW_FLT_LST_CASE_Filter_LST&#45;&gt;vmUXAS -->
<g id="edge54" class="edge">
<title>MCMP_PROC_SW_FLT_LST_CASE_Filter_LST&#45;&gt;vmUXAS</title>
<path fill="none" stroke="#000000" d="M1918.8448,-1024.6169C1933.8852,-1007.6029 1952.3624,-984.1976 1964.0349,-960.5548 1979.6078,-929.0116 1988.4401,-889.276 1992.9734,-862.9529"/>
<polygon fill="none" stroke="#000000" points="1914.7495,-1035.1114 1908.8152,-1029.7463 1914.1802,-1023.8119 1920.1146,-1029.177 1914.7495,-1035.1114"/>
<polyline fill="none" stroke="#000000" points="1917.1474,-1026.4945 1918.4887,-1025.0109 "/>
<polygon fill="none" stroke="#000000" points="1990.6605,-852.2511 1998.5569,-853.5348 1997.2732,-861.4312 1989.3768,-860.1475 1990.6605,-852.2511"/>
<polyline fill="none" stroke="#000000" points="1993.325,-860.7893 1993.0041,-862.7634 "/>
<text text-anchor="middle" x="1997.0349" y="-938.8548" font-family="Times,serif" font-size="14.00" fill="#000000">conn32</text>
</g>
<!-- conn31 -->
<g id="node33" class="node">
<title>conn31</title>
<polygon fill="none" stroke="#000000" points="1904.0349,-960.5548 1852.5893,-942.5548 1904.0349,-924.5548 1955.4805,-942.5548 1904.0349,-960.5548"/>
<text text-anchor="middle" x="1904.0349" y="-938.8548" font-family="Times,serif" font-size="14.00" fill="#000000">conn31</text>
</g>
<!-- MCMP_PROC_SW_FLT_LST_CASE_Filter_LST&#45;&gt;conn31 -->
<g id="edge52" class="edge">
<title>MCMP_PROC_SW_FLT_LST_CASE_Filter_LST&#45;&gt;conn31</title>
<path fill="none" stroke="#000000" d="M1895.7312,-1032.2341C1897.3016,-1015.2742 1899.6589,-989.8153 1901.4611,-970.3515"/>
<polygon fill="#000000" stroke="#000000" points="1904.9597,-970.5272 1902.3967,-960.2471 1897.9895,-969.8818 1904.9597,-970.5272"/>
</g>
<!-- MCMP_PROC_SW_MON_GEO_CASE_Monitor_Geo&#45;&gt;MCMP_PROC_SW_WPM_WaypointPlanManagerService -->
<g id="edge57" class="edge">
<title>MCMP_PROC_SW_MON_GEO_CASE_Monitor_Geo&#45;&gt;MCMP_PROC_SW_WPM_WaypointPlanManagerService</title>
<path fill="none" stroke="#000000" d="M668.4317,-330.2202C704.131,-322.1304 733.9014,-310.9291 744.0349,-295.4867 779.7618,-241.0424 780.9422,-161.2059 778.5837,-119.2119"/>
<polygon fill="none" stroke="#000000" points="659.0591,-336.3308 657.3746,-328.5101 665.1952,-326.8256 666.8798,-334.6462 659.0591,-336.3308"/>
<polyline fill="none" stroke="#000000" points="666.0375,-330.7359 667.9927,-330.3147 "/>
<polygon fill="none" stroke="#000000" points="773.9168,-109.4153 781.8988,-108.8792 782.4349,-116.8612 774.4529,-117.3973 773.9168,-109.4153"/>
<polyline fill="none" stroke="#000000" points="778.4439,-117.1292 778.578,-119.1248 "/>
<text text-anchor="middle" x="800.0349" y="-217.0434" font-family="Times,serif" font-size="14.00" fill="#000000">conn34</text>
</g>
<!-- MCMP_PROC_SW_MON_GEO_CASE_Monitor_Geo&#45;&gt;MCMP_PROC_SW_WPM_WaypointPlanManagerService -->
<g id="edge60" class="edge">
<title>MCMP_PROC_SW_MON_GEO_CASE_Monitor_Geo&#45;&gt;MCMP_PROC_SW_WPM_WaypointPlanManagerService</title>
<path fill="none" stroke="#000000" d="M591.8896,-329.8413C627.2768,-320.5628 661.2599,-308.7176 673.0349,-295.4867 717.9188,-245.0534 664.0856,-203.1466 700.0349,-146 707.7812,-133.6862 719.3739,-123.2696 731.1861,-114.9254"/>
<polygon fill="none" stroke="#000000" points="582.8762,-336.2654 580.9011,-328.5131 588.6534,-326.5379 590.6286,-334.2903 582.8762,-336.2654"/>
<polyline fill="none" stroke="#000000" points="589.641,-330.4141 591.5791,-329.9203 "/>
<polygon fill="none" stroke="#000000" points="737.5601,-105.8869 741.988,-112.5498 735.325,-116.9776 730.8972,-110.3147 737.5601,-105.8869"/>
<polyline fill="none" stroke="#000000" points="733.1111,-113.6462 731.4454,-114.7531 "/>
<text text-anchor="middle" x="720.0349" y="-217.0434" font-family="Times,serif" font-size="14.00" fill="#000000">conn36</text>
</g>
<!-- conn33 -->
<g id="node34" class="node">
<title>conn33</title>
<polygon fill="none" stroke="#000000" points="492.0349,-238.7434 440.5893,-220.7434 492.0349,-202.7434 543.4805,-220.7434 492.0349,-238.7434"/>
<text text-anchor="middle" x="492.0349" y="-217.0434" font-family="Times,serif" font-size="14.00" fill="#000000">conn33</text>
</g>
<!-- MCMP_PROC_SW_MON_GEO_CASE_Monitor_Geo&#45;&gt;conn33 -->
<g id="edge55" class="edge">
<title>MCMP_PROC_SW_MON_GEO_CASE_Monitor_Geo&#45;&gt;conn33</title>
<path fill="none" stroke="#000000" d="M492.0349,-332.4465C492.0349,-310.879 492.0349,-274.5238 492.0349,-249.1672"/>
<polygon fill="#000000" stroke="#000000" points="495.535,-249.0486 492.0349,-239.0487 488.535,-249.0487 495.535,-249.0486"/>
</g>
<!-- conn35 -->
<g id="node35" class="node">
<title>conn35</title>
<polygon fill="none" stroke="#000000" points="613.0349,-238.7434 561.5893,-220.7434 613.0349,-202.7434 664.4805,-220.7434 613.0349,-238.7434"/>
<text text-anchor="middle" x="613.0349" y="-217.0434" font-family="Times,serif" font-size="14.00" fill="#000000">conn35</text>
</g>
<!-- MCMP_PROC_SW_MON_GEO_CASE_Monitor_Geo&#45;&gt;conn35 -->
<g id="edge58" class="edge">
<title>MCMP_PROC_SW_MON_GEO_CASE_Monitor_Geo&#45;&gt;conn35</title>
<path fill="none" stroke="#000000" d="M513.2818,-332.3579C525.0858,-321.9591 539.8117,-308.4332 552.0349,-295.4867 567.7986,-278.7904 584.1725,-258.5413 595.9823,-243.333"/>
<polygon fill="#000000" stroke="#000000" points="599.0486,-245.087 602.3692,-235.0259 593.4992,-240.8203 599.0486,-245.087"/>
</g>
<!-- pacer -->
<g id="node13" class="node">
<title>pacer</title>
<path fill="none" stroke="#000000" d="M2239.5349,-1605.549C2239.5349,-1605.549 2180.5349,-1605.549 2180.5349,-1605.549 2174.5349,-1605.549 2168.5349,-1599.549 2168.5349,-1593.549 2168.5349,-1593.549 2168.5349,-1581.549 2168.5349,-1581.549 2168.5349,-1575.549 2174.5349,-1569.549 2180.5349,-1569.549 2180.5349,-1569.549 2239.5349,-1569.549 2239.5349,-1569.549 2245.5349,-1569.549 2251.5349,-1575.549 2251.5349,-1581.549 2251.5349,-1581.549 2251.5349,-1593.549 2251.5349,-1593.549 2251.5349,-1599.549 2245.5349,-1605.549 2239.5349,-1605.549"/>
<text text-anchor="middle" x="2210.0349" y="-1583.849" font-family="Times,serif" font-size="14.00" fill="#000000">pacer::Pacer</text>
</g>
<!-- pacer&#45;&gt;vmRADIO -->
<g id="edge65" class="edge">
<title>pacer&#45;&gt;vmRADIO</title>
<path fill="none" stroke="#000000" d="M2210.0349,-1559.2763C2210.0349,-1525.3749 2210.0349,-1468.8878 2210.0349,-1434.9358"/>
<polygon fill="none" stroke="#000000" points="2214.0349,-1569.5324 2206.0349,-1569.5323 2206.035,-1561.5323 2214.035,-1561.5324 2214.0349,-1569.5324"/>
<polyline fill="none" stroke="#000000" points="2210.035,-1561.5323 2210.035,-1559.5323 "/>
<polygon fill="none" stroke="#000000" points="2206.0349,-1424.7615 2214.0349,-1424.7614 2214.035,-1432.7614 2206.035,-1432.7615 2206.0349,-1424.7615"/>
<polyline fill="none" stroke="#000000" points="2210.035,-1432.7615 2210.035,-1434.7615 "/>
<text text-anchor="middle" x="2230.0349" y="-1510.849" font-family="Times,serif" font-size="14.00" fill="#000000">conn40</text>
</g>
<!-- pacer&#45;&gt;vmUXAS -->
<g id="edge68" class="edge">
<title>pacer&#45;&gt;vmUXAS</title>
<path fill="none" stroke="#000000" d="M2158.2486,-1584.9376C1994.7097,-1576.3521 1500.0349,-1547.6469 1500.0349,-1514.549 1500.0349,-1514.549 1500.0349,-1514.549 1500.0349,-1268.0548 1500.0349,-1163.3881 1444.0645,-1120.9992 1500.0349,-1032.5548 1524.3591,-994.1176 1802.4812,-898.5649 1931.735,-855.816"/>
<polygon fill="none" stroke="#000000" points="2168.7413,-1581.4793 2168.3247,-1589.4684 2160.3355,-1589.0518 2160.7522,-1581.0626 2168.7413,-1581.4793"/>
<polyline fill="none" stroke="#000000" points="2160.5438,-1585.0572 2158.5465,-1584.953 "/>
<polygon fill="none" stroke="#000000" points="1940.2731,-848.7859 1942.7804,-856.3828 1935.1835,-858.8901 1932.6762,-851.2932 1940.2731,-848.7859"/>
<polyline fill="none" stroke="#000000" points="1933.9298,-855.0917 1932.0306,-855.7185 "/>
<text text-anchor="middle" x="1520.0349" y="-1227.8548" font-family="Times,serif" font-size="14.00" fill="#000000">conn43</text>
</g>
<!-- conn37 -->
<g id="node36" class="node">
<title>conn37</title>
<polygon fill="none" stroke="#000000" points="2357.0349,-1532.549 2305.5893,-1514.549 2357.0349,-1496.549 2408.4805,-1514.549 2357.0349,-1532.549"/>
<text text-anchor="middle" x="2357.0349" y="-1510.849" font-family="Times,serif" font-size="14.00" fill="#000000">conn37</text>
</g>
<!-- pacer&#45;&gt;conn37 -->
<g id="edge61" class="edge">
<title>pacer&#45;&gt;conn37</title>
<path fill="none" stroke="#000000" d="M2244.7862,-1569.508C2256.9921,-1564.0052 2270.6704,-1557.7613 2283.0349,-1551.549 2296.6663,-1544.7002 2311.4759,-1536.345 2324.3812,-1529.3084"/>
<polygon fill="#000000" stroke="#000000" points="2326.2491,-1532.2779 2333.3976,-1524.4581 2322.9329,-1526.1132 2326.2491,-1532.2779"/>
</g>
<!-- conn39 -->
<g id="node37" class="node">
<title>conn39</title>
<polygon fill="none" stroke="#000000" points="2123.0349,-1532.549 2071.5893,-1514.549 2123.0349,-1496.549 2174.4805,-1514.549 2123.0349,-1532.549"/>
<text text-anchor="middle" x="2123.0349" y="-1510.849" font-family="Times,serif" font-size="14.00" fill="#000000">conn39</text>
</g>
<!-- pacer&#45;&gt;conn39 -->
<g id="edge63" class="edge">
<title>pacer&#45;&gt;conn39</title>
<path fill="none" stroke="#000000" d="M2188.5293,-1569.5041C2175.6115,-1558.665 2159.1821,-1544.8794 2146.0102,-1533.8271"/>
<polygon fill="#000000" stroke="#000000" points="2148.2005,-1531.0961 2138.2902,-1527.3495 2143.701,-1536.4585 2148.2005,-1531.0961"/>
</g>
<!-- conn42 -->
<g id="node38" class="node">
<title>conn42</title>
<polygon fill="none" stroke="#000000" points="2541.0349,-1478.549 2489.5893,-1460.549 2541.0349,-1442.549 2592.4805,-1460.549 2541.0349,-1478.549"/>
<text text-anchor="middle" x="2541.0349" y="-1456.849" font-family="Times,serif" font-size="14.00" fill="#000000">conn42</text>
</g>
<!-- pacer&#45;&gt;conn42 -->
<g id="edge66" class="edge">
<title>pacer&#45;&gt;conn42</title>
<path fill="none" stroke="#000000" d="M2224.8676,-1569.4378C2244.8402,-1545.5339 2279.8521,-1505.433 2297.0349,-1496.549 2329.3507,-1479.8409 2426.2648,-1469.4525 2487.7859,-1464.3554"/>
<polygon fill="#000000" stroke="#000000" points="2488.4025,-1467.8171 2498.0884,-1463.5237 2487.8391,-1460.8398 2488.4025,-1467.8171"/>
</g>
<!-- conn38.conn41.conn44.conn45.conn46.conn47.conn48 -->
<g id="node44" class="node">
<title>conn38.conn41.conn44.conn45.conn46.conn47.conn48</title>
<polygon fill="none" stroke="#000000" points="1151.0349,-1337.0519 859.7891,-1319.0519 1151.0349,-1301.0519 1442.2806,-1319.0519 1151.0349,-1337.0519"/>
<text text-anchor="middle" x="1151.0349" y="-1315.3519" font-family="Times,serif" font-size="14.00" fill="#000000">conn38.conn41.conn44.conn45.conn46.conn47.conn48</text>
</g>
<!-- pacer&#45;&gt;conn38.conn41.conn44.conn45.conn46.conn47.conn48 -->
<g id="edge82" class="edge">
<title>pacer&#45;&gt;conn38.conn41.conn44.conn45.conn46.conn47.conn48</title>
<path fill="none" stroke="#000000" d="M2168.2494,-1586.8105C2023.748,-1584.0722 1550.5155,-1573.5051 1486.0349,-1551.549 1354.0861,-1506.6196 1226.9405,-1393.272 1175.2618,-1343.3259"/>
<polygon fill="#000000" stroke="#000000" points="1177.5114,-1340.6308 1167.9093,-1336.1531 1172.6232,-1345.6414 1177.5114,-1340.6308"/>
</g>
<!-- time_server.hwtimer -->
<g id="node14" class="node">
<title>time_server.hwtimer</title>
<path fill="none" stroke="#000000" d="M2731.5349,-368.4867C2731.5349,-368.4867 2560.5349,-368.4867 2560.5349,-368.4867 2554.5349,-368.4867 2548.5349,-362.4867 2548.5349,-356.4867 2548.5349,-356.4867 2548.5349,-344.4867 2548.5349,-344.4867 2548.5349,-338.4867 2554.5349,-332.4867 2560.5349,-332.4867 2560.5349,-332.4867 2731.5349,-332.4867 2731.5349,-332.4867 2737.5349,-332.4867 2743.5349,-338.4867 2743.5349,-344.4867 2743.5349,-344.4867 2743.5349,-356.4867 2743.5349,-356.4867 2743.5349,-362.4867 2737.5349,-368.4867 2731.5349,-368.4867"/>
<text text-anchor="middle" x="2646.0349" y="-346.7867" font-family="Times,serif" font-size="14.00" fill="#000000">time_server.hwtimer::HWTimer</text>
</g>
<!-- time_server.hwtimer_irq -->
<g id="node40" class="node">
<title>time_server.hwtimer_irq</title>
<polygon fill="none" stroke="#000000" points="2644.0349,-238.7434 2504.1108,-220.7434 2644.0349,-202.7434 2783.959,-220.7434 2644.0349,-238.7434"/>
<text text-anchor="middle" x="2644.0349" y="-217.0434" font-family="Times,serif" font-size="14.00" fill="#000000">time_server.hwtimer_irq</text>
</g>
<!-- time_server.hwtimer&#45;&gt;time_server.hwtimer_irq -->
<g id="edge71" class="edge">
<title>time_server.hwtimer&#45;&gt;time_server.hwtimer_irq</title>
<path fill="none" stroke="#000000" d="M2645.7568,-332.4465C2645.4243,-310.879 2644.8639,-274.5238 2644.473,-249.1672"/>
<polygon fill="#000000" stroke="#000000" points="2647.9709,-248.9935 2644.3171,-239.0487 2640.9717,-249.1015 2647.9709,-248.9935"/>
</g>
<!-- conn1&#45;&gt;vmRADIO -->
<g id="edge2" class="edge">
<title>conn1&#45;&gt;vmRADIO</title>
<path fill="none" stroke="#000000" d="M1784.1819,-1337.2738C1791.2365,-1342.72 1799.0087,-1348.1417 1807.0349,-1351.549 1842.1576,-1366.4594 1918.5686,-1378.4365 1995.5281,-1387.3594"/>
<polygon fill="#000000" stroke="#000000" points="1995.5612,-1390.8859 2005.8937,-1388.5428 1996.3553,-1383.9311 1995.5612,-1390.8859"/>
</g>
<!-- notify_ready_vmRADIO&#45;&gt;vmRADIO -->
<g id="edge4" class="edge">
<title>notify_ready_vmRADIO&#45;&gt;vmRADIO</title>
<path fill="none" stroke="#000000" d="M1990.7579,-1331.6786C2034.7328,-1345.6754 2103.3611,-1368.486 2152.1646,-1385.2565"/>
<polygon fill="#000000" stroke="#000000" points="2151.0531,-1388.5754 2161.6478,-1388.5257 2153.3345,-1381.9576 2151.0531,-1388.5754"/>
</g>
<!-- serialserver_timer&#45;&gt;time_server -->
<g id="edge6" class="edge">
<title>serialserver_timer&#45;&gt;time_server</title>
<path fill="none" stroke="#000000" d="M2826.1672,-164.9675C2811.1784,-148.2028 2795.4503,-130.6113 2783.0946,-116.7917"/>
<polygon fill="#000000" stroke="#000000" points="2785.5149,-114.2477 2776.2405,-109.1256 2780.2965,-118.9133 2785.5149,-114.2477"/>
</g>
<!-- conn2&#45;&gt;vmUXAS -->
<g id="edge8" class="edge">
<title>conn2&#45;&gt;vmUXAS</title>
<path fill="none" stroke="#000000" d="M1813.1597,-631.9026C1816.1986,-671.4614 1822.6997,-738.2086 1859.0349,-779.5548 1871.7483,-794.0215 1888.647,-804.6925 1906.2613,-812.5608"/>
<polygon fill="#000000" stroke="#000000" points="1904.9428,-815.803 1915.5194,-816.4252 1907.6393,-809.3432 1904.9428,-815.803"/>
</g>
<!-- notify_ready_vmUXAS&#45;&gt;vmUXAS -->
<g id="edge10" class="edge">
<title>notify_ready_vmUXAS&#45;&gt;vmUXAS</title>
<path fill="none" stroke="#000000" d="M2179.9022,-616.3626C2150.3601,-656.9913 2065.5216,-760.5927 2022.4546,-808.9587"/>
<polygon fill="#000000" stroke="#000000" points="2019.754,-806.7274 2015.6671,-816.5023 2024.9577,-811.4095 2019.754,-806.7274"/>
</g>
<!-- conn3&#45;&gt;MCMP_PROC_SW_WPM_WaypointPlanManagerService -->
<g id="edge12" class="edge">
<title>conn3&#45;&gt;MCMP_PROC_SW_WPM_WaypointPlanManagerService</title>
<path fill="none" stroke="#000000" d="M1109.2786,-870.8769C1110.4528,-852.6423 1112.0349,-823.3755 1112.0349,-798.0548 1112.0349,-798.0548 1112.0349,-798.0548 1112.0349,-220.7434 1112.0349,-172.6615 1098.0528,-153.654 1058.0349,-127 1048.5464,-120.6802 1033.2991,-115.469 1014.6805,-111.172"/>
<polygon fill="#000000" stroke="#000000" points="1015.1627,-107.6956 1004.6494,-109.0073 1013.6861,-114.5381 1015.1627,-107.6956"/>
</g>
<!-- conn5&#45;&gt;vmUXAS -->
<g id="edge15" class="edge">
<title>conn5&#45;&gt;vmUXAS</title>
<path fill="none" stroke="#000000" d="M1498.9813,-927.9232C1510.347,-910.81 1531.6888,-883.213 1558.0349,-870.5548 1579.6104,-860.1887 1685.0919,-851.351 1787.2442,-845.0264"/>
<polygon fill="#000000" stroke="#000000" points="1787.6672,-848.5071 1797.4348,-844.403 1787.2397,-841.5202 1787.6672,-848.5071"/>
</g>
<!-- conn7&#45;&gt;MCMP_PROC_SW_AM_Gate_CASE_AttestationGate -->
<g id="edge18" class="edge">
<title>conn7&#45;&gt;MCMP_PROC_SW_AM_Gate_CASE_AttestationGate</title>
<path fill="none" stroke="#000000" d="M2364.7972,-1307.9703C2343.0127,-1294.7337 2305.9729,-1272.2276 2277.7164,-1255.0584"/>
<polygon fill="#000000" stroke="#000000" points="2279.2449,-1251.8917 2268.8813,-1249.6901 2275.6099,-1257.874 2279.2449,-1251.8917"/>
</g>
<!-- conn9&#45;&gt;MCMP_PROC_SW_AM_Gate_CASE_AttestationGate -->
<g id="edge21" class="edge">
<title>conn9&#45;&gt;MCMP_PROC_SW_AM_Gate_CASE_AttestationGate</title>
<path fill="none" stroke="#000000" d="M2166.0964,-1305.763C2178.6953,-1292.9448 2198.1014,-1273.2009 2213.7299,-1257.3003"/>
<polygon fill="#000000" stroke="#000000" points="2216.5386,-1259.4357 2221.0523,-1249.8504 2211.5463,-1254.5288 2216.5386,-1259.4357"/>
</g>
<!-- conn11&#45;&gt;MCMP_PROC_SW_AM_Gate_CASE_AttestationGate -->
<g id="edge24" class="edge">
<title>conn11&#45;&gt;MCMP_PROC_SW_AM_Gate_CASE_AttestationGate</title>
<path fill="none" stroke="#000000" d="M1672.9167,-1307.1525C1684.6678,-1299.9456 1700.6604,-1291.2625 1716.0349,-1286.5548 1764.033,-1271.8577 1867.2942,-1259.6388 1969.4866,-1250.4808"/>
<polygon fill="#000000" stroke="#000000" points="1970.0381,-1253.9457 1979.6899,-1249.5761 1969.4198,-1246.973 1970.0381,-1253.9457"/>
</g>
<!-- conn13&#45;&gt;MCMP_PROC_SW_AM_Gate_CASE_AttestationGate -->
<g id="edge27" class="edge">
<title>conn13&#45;&gt;MCMP_PROC_SW_AM_Gate_CASE_AttestationGate</title>
<path fill="none" stroke="#000000" d="M2262.5802,-1302.5944C2258.5665,-1290.4846 2253.0134,-1273.7298 2248.308,-1259.533"/>
<polygon fill="#000000" stroke="#000000" points="2251.5342,-1258.1417 2245.0657,-1249.7507 2244.8896,-1260.344 2251.5342,-1258.1417"/>
</g>
<!-- conn17&#45;&gt;MCMP_PROC_SW_MON_GEO_CASE_Monitor_Geo -->
<g id="edge32" class="edge">
<title>conn17&#45;&gt;MCMP_PROC_SW_MON_GEO_CASE_Monitor_Geo</title>
<path fill="none" stroke="#000000" d="M848.56,-581.6529C846.5853,-545.4001 836.7779,-462.9657 789.0349,-419.4867 765.6764,-398.2145 699.5313,-381.7784 635.5778,-370.2933"/>
<polygon fill="#000000" stroke="#000000" points="635.7945,-366.7777 625.3394,-368.4925 634.5819,-373.6719 635.7945,-366.7777"/>
</g>
<!-- conn19&#45;&gt;MCMP_PROC_SW_MON_REQ_CASE_Monitor_Req -->
<g id="edge35" class="edge">
<title>conn19&#45;&gt;MCMP_PROC_SW_MON_REQ_CASE_Monitor_Req</title>
<path fill="none" stroke="#000000" d="M1910.0349,-581.2087C1910.0349,-538.1081 1910.0349,-430.0259 1910.0349,-378.5673"/>
<polygon fill="#000000" stroke="#000000" points="1913.535,-378.4897 1910.0349,-368.4898 1906.535,-378.4898 1913.535,-378.4897"/>
</g>
<!-- conn21&#45;&gt;MCMP_PROC_SW_FC_UART_UARTDriver -->
<g id="edge38" class="edge">
<title>conn21&#45;&gt;MCMP_PROC_SW_FC_UART_UARTDriver</title>
<path fill="none" stroke="#000000" d="M1056.4762,-21.8956C1124.8744,-29.6147 1256.0349,-49.7894 1256.0349,-91 1256.0349,-942.5548 1256.0349,-942.5548 1256.0349,-942.5548 1256.0349,-987.4481 1215.776,-1013.8622 1172.0325,-1029.3122"/>
<polygon fill="#000000" stroke="#000000" points="1170.7397,-1026.0538 1162.3617,-1032.539 1172.9554,-1032.6939 1170.7397,-1026.0538"/>
</g>
<!-- conn23&#45;&gt;vmUXAS -->
<g id="edge41" class="edge">
<title>conn23&#45;&gt;vmUXAS</title>
<path fill="none" stroke="#000000" d="M2399.1555,-1093.8277C2408.6108,-1087.8014 2418.7936,-1079.3123 2424.0349,-1068.5548 2450.7352,-1013.7538 2473.3159,-942.8088 2394.0349,-870.5548 2379.0129,-856.8642 2294.1817,-848.1578 2206.7721,-842.7441"/>
<polygon fill="#000000" stroke="#000000" points="2206.8513,-839.2426 2196.6583,-842.1327 2206.4289,-846.2298 2206.8513,-839.2426"/>
</g>
<!-- conn25&#45;&gt;MCMP_PROC_SW_MON_REQ_CASE_Monitor_Req -->
<g id="edge44" class="edge">
<title>conn25&#45;&gt;MCMP_PROC_SW_MON_REQ_CASE_Monitor_Req</title>
<path fill="none" stroke="#000000" d="M1669.1068,-978.5994C1670.2917,-957.1742 1672.0349,-920.264 1672.0349,-888.5548 1672.0349,-888.5548 1672.0349,-888.5548 1672.0349,-599.5208 1672.0349,-519.2641 1635.8955,-482.154 1686.0349,-419.4867 1701.8273,-399.7484 1755.0515,-382.9169 1805.6547,-370.8198"/>
<polygon fill="#000000" stroke="#000000" points="1806.4559,-374.2269 1815.3953,-368.5403 1804.8608,-367.4111 1806.4559,-374.2269"/>
</g>
<!-- conn27&#45;&gt;vmUXAS -->
<g id="edge47" class="edge">
<title>conn27&#45;&gt;vmUXAS</title>
<path fill="none" stroke="#000000" d="M2488.1035,-1087.2029C2492.4707,-1041.2606 2496.8174,-916.8203 2423.0349,-870.5548 2403.6948,-858.4275 2304.561,-849.6422 2206.7924,-843.7874"/>
<polygon fill="#000000" stroke="#000000" points="2206.9159,-840.2887 2196.7273,-843.1946 2206.5042,-847.2766 2206.9159,-840.2887"/>
</g>
<!-- conn29&#45;&gt;MCMP_PROC_SW_FLT_LST_CASE_Filter_LST -->
<g id="edge50" class="edge">
<title>conn29&#45;&gt;MCMP_PROC_SW_FLT_LST_CASE_Filter_LST</title>
<path fill="none" stroke="#000000" d="M1966.7063,-1143.9894C1953.3437,-1126.809 1930.8736,-1097.9189 1914.4502,-1076.8031"/>
<polygon fill="#000000" stroke="#000000" points="1917.1672,-1074.5954 1908.265,-1068.8507 1911.6417,-1078.893 1917.1672,-1074.5954"/>
</g>
<!-- conn31&#45;&gt;vmUXAS -->
<g id="edge53" class="edge">
<title>conn31&#45;&gt;vmUXAS</title>
<path fill="none" stroke="#000000" d="M1916.193,-928.4357C1931.0369,-911.1977 1956.4297,-881.7092 1974.8015,-860.3742"/>
<polygon fill="#000000" stroke="#000000" points="1977.5892,-862.5007 1981.4622,-852.6392 1972.2848,-857.933 1977.5892,-862.5007"/>
</g>
<!-- conn33&#45;&gt;MCMP_PROC_SW_WPM_WaypointPlanManagerService -->
<g id="edge56" class="edge">
<title>conn33&#45;&gt;MCMP_PROC_SW_WPM_WaypointPlanManagerService</title>
<path fill="none" stroke="#000000" d="M500.4556,-205.3454C510.6401,-188.2049 529.3965,-160.9539 553.0349,-146 577.1504,-130.7442 605.2092,-119.7198 633.1224,-111.7532"/>
<polygon fill="#000000" stroke="#000000" points="634.2578,-115.0714 642.9828,-109.0609 632.414,-108.3186 634.2578,-115.0714"/>
</g>
<!-- conn35&#45;&gt;MCMP_PROC_SW_WPM_WaypointPlanManagerService -->
<g id="edge59" class="edge">
<title>conn35&#45;&gt;MCMP_PROC_SW_WPM_WaypointPlanManagerService</title>
<path fill="none" stroke="#000000" d="M621.4657,-205.3941C633.397,-184.9467 657.0205,-148.8214 686.0349,-127 692.8016,-121.9108 700.3849,-117.4315 708.2023,-113.5189"/>
<polygon fill="#000000" stroke="#000000" points="709.8826,-116.5968 717.452,-109.1836 706.9118,-110.2585 709.8826,-116.5968"/>
</g>
<!-- conn37&#45;&gt;pacer -->
<g id="edge62" class="edge">
<title>conn37&#45;&gt;pacer</title>
<path fill="none" stroke="#000000" d="M2343.0101,-1527.8001C2331.6289,-1535.1258 2315.6544,-1544.2038 2301.0349,-1551.549 2288.4023,-1557.896 2274.3984,-1564.276 2261.1878,-1569.8649"/>
<polygon fill="#000000" stroke="#000000" points="2259.6362,-1566.7192 2251.7396,-1573.7828 2262.3176,-1573.1853 2259.6362,-1566.7192"/>
</g>
<!-- conn39&#45;&gt;vmRADIO -->
<g id="edge64" class="edge">
<title>conn39&#45;&gt;vmRADIO</title>
<path fill="none" stroke="#000000" d="M2134.4086,-1500.4299C2148.2336,-1483.2678 2171.8403,-1453.963 2189.0084,-1432.6509"/>
<polygon fill="#000000" stroke="#000000" points="2191.9192,-1434.6166 2195.4669,-1424.6334 2186.4679,-1430.2253 2191.9192,-1434.6166"/>
</g>
<!-- conn42&#45;&gt;vmUXAS -->
<g id="edge67" class="edge">
<title>conn42&#45;&gt;vmUXAS</title>
<path fill="none" stroke="#000000" d="M2578.5793,-1455.6697C2651.465,-1445.1427 2805.0349,-1417.3499 2805.0349,-1370.049 2805.0349,-1370.049 2805.0349,-1370.049 2805.0349,-942.5548 2805.0349,-882.2118 2446.4133,-854.3367 2207.0063,-842.451"/>
<polygon fill="#000000" stroke="#000000" points="2206.9248,-838.9429 2196.7653,-841.9487 2206.5818,-845.9345 2206.9248,-838.9429"/>
</g>
<!-- serial.serial_conn&#45;&gt;serial -->
<g id="edge70" class="edge">
<title>serial.serial_conn&#45;&gt;serial</title>
<path fill="none" stroke="#000000" d="M3076.4167,-238.2159C3078.1927,-259.761 3077.6388,-296.6626 3075.3717,-322.2506"/>
<polygon fill="#000000" stroke="#000000" points="3071.8646,-322.1347 3074.297,-332.4465 3078.826,-322.8685 3071.8646,-322.1347"/>
</g>
<!-- time_server.hwtimer_irq&#45;&gt;time_server -->
<g id="edge72" class="edge">
<title>time_server.hwtimer_irq&#45;&gt;time_server</title>
<path fill="none" stroke="#000000" d="M2658.4918,-204.5736C2678.1962,-182.5347 2713.7016,-142.8228 2737.0708,-116.6848"/>
<polygon fill="#000000" stroke="#000000" points="2739.8467,-118.8312 2743.9027,-109.0435 2734.6283,-114.1655 2739.8467,-118.8312"/>
</g>
<!-- fsvmRADIO.fsvmUXAS&#45;&gt;fserv -->
<g id="edge75" class="edge">
<title>fsvmRADIO.fsvmUXAS&#45;&gt;fserv</title>
<path fill="none" stroke="#000000" d="M2480.0084,-498.5881C2479.1395,-455.3096 2478.1913,-408.0855 2477.6048,-378.8738"/>
<polygon fill="#000000" stroke="#000000" points="2481.0988,-378.5336 2477.3987,-368.6059 2474.1002,-378.6742 2481.0988,-378.5336"/>
</g>
<!-- serial_vmRADIO.serial_vmUXAS&#45;&gt;serial -->
<g id="edge78" class="edge">
<title>serial_vmRADIO.serial_vmUXAS&#45;&gt;serial</title>
<path fill="none" stroke="#000000" d="M2810.9203,-486.3328C2831.1133,-461.84 2854.5203,-437.8213 2880.0349,-419.4867 2915.4486,-394.0387 2961.2704,-377.0014 2998.9266,-366.2236"/>
<polygon fill="#000000" stroke="#000000" points="3000.1114,-369.5272 3008.8128,-363.4827 2998.2412,-362.7817 3000.1114,-369.5272"/>
</g>
<!-- serial_input_vmRADIO.serial_input_vmUXAS&#45;&gt;serial -->
<g id="edge81" class="edge">
<title>serial_input_vmRADIO.serial_input_vmUXAS&#45;&gt;serial</title>
<path fill="none" stroke="#000000" d="M3069.0349,-419.1956C3069.0349,-403.906 3069.0349,-390.0319 3069.0349,-378.8183"/>
<polygon fill="#000000" stroke="#000000" points="3072.535,-378.5376 3069.0349,-368.5376 3065.535,-378.5376 3072.535,-378.5376"/>
</g>
<!-- conn38.conn41.conn44.conn45.conn46.conn47.conn48&#45;&gt;MCMP_PROC_SW_FC_UART_UARTDriver -->
<g id="edge88" class="edge">
<title>conn38.conn41.conn44.conn45.conn46.conn47.conn48&#45;&gt;MCMP_PROC_SW_FC_UART_UARTDriver</title>
<path fill="none" stroke="#000000" d="M1145.1243,-1301.0181C1130.1,-1255.1773 1090.3583,-1133.9213 1072.254,-1078.6832"/>
<polygon fill="#000000" stroke="#000000" points="1075.4761,-1077.2762 1069.0356,-1068.8636 1068.8242,-1079.4564 1075.4761,-1077.2762"/>
</g>
<!-- conn38.conn41.conn44.conn45.conn46.conn47.conn48&#45;&gt;MCMP_PROC_SW_FlyZones_FlyZonesDatabase -->
<g id="edge85" class="edge">
<title>conn38.conn41.conn44.conn45.conn46.conn47.conn48&#45;&gt;MCMP_PROC_SW_FlyZones_FlyZonesDatabase</title>
<path fill="none" stroke="#000000" d="M989.8514,-1310.9897C812.132,-1299.881 551.0349,-1275.9978 551.0349,-1231.5548 551.0349,-1231.5548 551.0349,-1231.5548 551.0349,-834.5548 551.0349,-747.4268 478.9021,-664.6964 437.8222,-624.6458"/>
<polygon fill="#000000" stroke="#000000" points="440.1816,-622.0592 430.5375,-617.6727 435.3412,-627.1159 440.1816,-622.0592"/>
</g>
<!-- conn38.conn41.conn44.conn45.conn46.conn47.conn48&#45;&gt;MCMP_PROC_SW_WPM_WaypointPlanManagerService -->
<g id="edge87" class="edge">
<title>conn38.conn41.conn44.conn45.conn46.conn47.conn48&#45;&gt;MCMP_PROC_SW_WPM_WaypointPlanManagerService</title>
<path fill="none" stroke="#000000" d="M1040.3212,-1307.8778C909.6885,-1293.1598 710.0349,-1265.1672 710.0349,-1231.5548 710.0349,-1231.5548 710.0349,-1231.5548 710.0349,-1104.5548 710.0349,-935.1835 853.5416,-939.577 909.0349,-779.5548 965.2491,-617.4537 928.0349,-565.5583 928.0349,-393.9867 928.0349,-393.9867 928.0349,-393.9867 928.0349,-220.7434 928.0349,-169.3493 877.1423,-133.9916 834.2537,-113.3194"/>
<polygon fill="#000000" stroke="#000000" points="835.5092,-110.0435 824.9653,-109.0056 832.5606,-116.3923 835.5092,-110.0435"/>
</g>
<!-- conn38.conn41.conn44.conn45.conn46.conn47.conn48&#45;&gt;MCMP_PROC_SW_AM_Gate_CASE_AttestationGate -->
<g id="edge83" class="edge">
<title>conn38.conn41.conn44.conn45.conn46.conn47.conn48&#45;&gt;MCMP_PROC_SW_AM_Gate_CASE_AttestationGate</title>
<path fill="none" stroke="#000000" d="M1232.5634,-1306.0254C1309.5555,-1294.2007 1428.3553,-1277.1843 1532.0349,-1267.5548 1623.9843,-1259.0147 1722.8631,-1252.3865 1816.6827,-1247.2836"/>
<polygon fill="#000000" stroke="#000000" points="1817.1204,-1250.7652 1826.9175,-1246.7319 1816.7436,-1243.7753 1817.1204,-1250.7652"/>
</g>
<!-- conn38.conn41.conn44.conn45.conn46.conn47.conn48&#45;&gt;MCMP_PROC_SW_FLT_LST_CASE_Filter_LST -->
<g id="edge89" class="edge">
<title>conn38.conn41.conn44.conn45.conn46.conn47.conn48&#45;&gt;MCMP_PROC_SW_FLT_LST_CASE_Filter_LST</title>
<path fill="none" stroke="#000000" d="M1255.3919,-1307.4407C1321.7285,-1298.6821 1400.4948,-1285.3178 1430.0349,-1268.5548 1458.2526,-1252.5422 1451.5042,-1232.2301 1478.0349,-1213.5548 1580.5935,-1141.3623 1719.5491,-1095.3399 1808.0132,-1071.2282"/>
<polygon fill="#000000" stroke="#000000" points="1808.9981,-1074.5878 1817.7446,-1068.6088 1807.1785,-1067.8284 1808.9981,-1074.5878"/>
</g>
<!-- conn38.conn41.conn44.conn45.conn46.conn47.conn48&#45;&gt;MCMP_PROC_SW_MON_REQ_CASE_Monitor_Req -->
<g id="edge86" class="edge">
<title>conn38.conn41.conn44.conn45.conn46.conn47.conn48&#45;&gt;MCMP_PROC_SW_MON_REQ_CASE_Monitor_Req</title>
<path fill="none" stroke="#000000" d="M1241.4917,-1306.6018C1318.2601,-1293.4145 1416.0349,-1269.2246 1416.0349,-1231.5548 1416.0349,-1231.5548 1416.0349,-1231.5548 1416.0349,-599.5208 1416.0349,-457.7741 1580.2147,-396.6943 1719.2763,-370.3823"/>
<polygon fill="#000000" stroke="#000000" points="1720.0418,-373.8003 1729.2427,-368.5473 1718.7742,-366.916 1720.0418,-373.8003"/>
</g>
<!-- conn38.conn41.conn44.conn45.conn46.conn47.conn48&#45;&gt;MCMP_PROC_SW_MON_GEO_CASE_Monitor_Geo -->
<g id="edge84" class="edge">
<title>conn38.conn41.conn44.conn45.conn46.conn47.conn48&#45;&gt;MCMP_PROC_SW_MON_GEO_CASE_Monitor_Geo</title>
<path fill="none" stroke="#000000" d="M948.717,-1313.5538C621.4138,-1303.2998 12.0349,-1277.9754 12.0349,-1231.5548 12.0349,-1231.5548 12.0349,-1231.5548 12.0349,-599.5208 12.0349,-519.0613 -24.6099,-477.602 31.0349,-419.4867 49.593,-400.1048 172.6674,-382.2848 286.9763,-369.611"/>
<polygon fill="#000000" stroke="#000000" points="287.3879,-373.0869 296.946,-368.516 286.6237,-366.1288 287.3879,-373.0869"/>
</g>
</g>
</svg>
